<svg width="85" height="86" viewBox="0 0 85 86" fill="none" xmlns="http://www.w3.org/2000/svg">
<g id="2iMLQy7KwxP5H8zj9vgAuLXOYlb 4" clip-path="url(#clip0_1594_3193)">
<path id="Subtract" fill-rule="evenodd" clip-rule="evenodd" d="M20.5444 0.693359H64.4561V6.37939H79.3145V21.2378H85V66.1494H79.3145V81.0078H64.4561V85.6934H20.5444V80.0078H5.68604V65.1494H0V21.2378H5.68604V6.37939H20.5444V0.693359Z" fill="#F46927"/>
<path id="Vector" d="M41.3379 4.25977H43.6621L45.2808 4.34277L46.6919 4.46729L48.6011 4.71631L50.4272 5.04834L52.3779 5.50488L53.8306 5.91992L55.6152 6.50098L57.2339 7.12354L58.562 7.70459L60.0562 8.41016L61.0107 8.9082L61.9653 9.44775L63.0029 10.0703L64.0405 10.7344L64.9951 11.3984L65.7422 11.938L66.4893 12.519L66.9043 12.8511L67.3608 13.2246L67.9004 13.6812L68.4814 14.1792L69.7681 15.3828L70.6812 16.2959L70.9717 16.6279L71.2622 16.9185L71.5527 17.2505L71.9263 17.6655L72.2998 18.1221L72.7979 18.7031L73.2129 19.2427L73.7939 19.9897L74.292 20.6953L74.873 21.5254L75.5371 22.563L76.2427 23.7251L76.9067 24.9287L77.5293 26.1323L78.1519 27.502L78.6499 28.6641L79.1064 29.8677L79.646 31.4448L80.1025 33.022L80.4761 34.5161L80.8081 36.1348L81.0986 37.9609L81.2646 39.3721L81.3892 41.1152L81.4307 42.0283V44.311L81.3477 45.9712L81.2231 47.3408L81.0156 49.001L80.7251 50.7026L80.3516 52.4043L79.895 54.106L79.397 55.6831L78.9404 56.9697L78.4424 58.2148L77.9443 59.3354L77.2803 60.7466L76.7822 61.7012L76.2427 62.6558L75.6201 63.6934L74.9561 64.731L74.292 65.6855L73.7524 66.4326L73.1714 67.1797L72.8394 67.5947L72.4658 68.0513L72.0093 68.5908L71.5112 69.1719L70.2661 70.5L69.436 71.3301L69.104 71.6206L68.772 71.9526L68.4399 72.2432L68.0249 72.6167L67.5684 72.9902L67.0288 73.4468L66.4478 73.9033L65.7007 74.4844L64.9951 74.9824L64.165 75.5635L63.1274 76.2275L61.9653 76.9331L60.7617 77.5972L59.5581 78.2197L58.1885 78.8423L57.0264 79.3403L55.8228 79.7969L54.2456 80.3364L52.8345 80.7515L51.0083 81.208L49.5557 81.4985L48.02 81.7476L46.3184 81.9551L44.5752 82.0796L43.6206 82.1211H41.3379L39.1797 81.9966L37.6025 81.8306L35.9009 81.5815L34.1992 81.2495L32.6221 80.876L31.1694 80.4609L29.3848 79.8799L27.7661 79.2573L26.438 78.6763L24.9438 77.9707L23.9893 77.4727L23.0347 76.9331L21.9971 76.3105L20.9595 75.6465L20.0049 74.9824L19.2578 74.4429L18.5107 73.8618L18.0957 73.5298L17.6392 73.1562L17.0996 72.6997L16.5186 72.2017L15.2319 70.998L14.3188 70.085L14.0283 69.7529L13.7378 69.4624L13.4473 69.1304L13.0737 68.7153L12.7002 68.2588L12.2021 67.6777L11.7871 67.1382L11.2061 66.3911L10.708 65.6855L10.127 64.8555L9.46289 63.8179L8.75732 62.6558L8.09326 61.4521L7.4707 60.2485L6.84814 58.8789L6.3501 57.7168L5.89355 56.5132L5.354 54.936L4.89746 53.3589L4.48242 51.6987L4.19189 50.2461L3.94287 48.7104L3.73535 46.9673L3.61084 45.2656L3.56934 44.3525V42.0283L3.65234 40.4097L3.81836 38.625L4.10889 36.5913L4.44092 34.8896L4.81445 33.3125L5.22949 31.8599L5.81055 30.0752L6.43311 28.4565L7.01416 27.1284L7.71973 25.6343L8.21777 24.6797L8.75732 23.7251L9.37988 22.6875L10.0439 21.6499L10.708 20.6953L11.2476 19.9482L11.8286 19.2012L12.1606 18.7861L12.5342 18.3296L12.9907 17.79L13.4888 17.209L14.6924 15.9224L15.6055 15.0093L15.9375 14.7188L16.228 14.4282L16.5601 14.1377L16.9751 13.7642L17.4316 13.3906L17.9712 12.9341L18.5522 12.4775L19.2993 11.8965L20.0049 11.3984L20.835 10.8174L21.8726 10.1533L22.9102 9.53076L23.8647 8.99121L24.8193 8.49316L25.4419 8.16113L26.8115 7.53857L27.9736 7.04053L29.1772 6.58398L30.7544 6.04443L32.3315 5.58789L33.9917 5.17285L35.4443 4.88232L36.98 4.6333L38.6816 4.42578L40.4248 4.30127L41.3379 4.25977ZM40.9229 13.1831L39.3042 13.3076L37.478 13.5566L35.8179 13.8887L34.4897 14.2207L32.9956 14.6772L31.709 15.1338L30.4224 15.6733L29.3433 16.1714L28.5132 16.5864L27.5586 17.126L26.6455 17.6655L25.7324 18.2466L24.9854 18.7861L24.1968 19.3672L23.5327 19.9067L23.0762 20.2803L22.4951 20.7783L21.8726 21.3594L21.582 21.6499L21.25 21.9404L19.9634 23.3101L19.5898 23.7666L19.0918 24.3477L18.5522 25.0532L18.0542 25.7173L17.3901 26.6719L16.7261 27.751L16.1035 28.8301L15.3979 30.1997L14.8169 31.4863L14.2773 32.856L13.7793 34.3501L13.3643 35.8027L12.9907 37.5044L12.7417 38.9985L12.5757 40.4512L12.4927 41.6133V44.7676L12.6172 46.3862L12.8662 48.2124L13.1982 49.8726L13.5303 51.2007L13.9868 52.6948L14.4434 53.9814L14.9829 55.2681L15.481 56.3472L15.896 57.1772L16.4355 58.1318L16.7676 58.7129L17.2656 59.5015L17.6807 60.124L18.1787 60.8296L18.8428 61.7012L19.3823 62.3652L19.8389 62.9048L20.5859 63.7349L20.9595 64.1084L21.25 64.4404L21.5405 64.731L21.8726 65.0215L22.2461 65.395L22.5781 65.6855L23.1592 66.1836L23.8647 66.7646L24.4043 67.1797L25.1514 67.7192L25.9814 68.3003L27.0605 68.9644L27.8491 69.4209L28.8452 69.9604L29.7583 70.417L30.7959 70.8735L32.1655 71.4131L33.6597 71.9111L34.9463 72.2847L36.6064 72.6582L38.0176 72.9072L39.3457 73.0732L40.9229 73.1978H44.0771L45.6543 73.0732L47.2314 72.8657L48.8086 72.5752L50.1782 72.2432L51.3403 71.9111L52.8345 71.4131L53.9966 70.9565L55.0342 70.5L56.0718 70.002L57.0264 69.5039L58.147 68.8398L58.9355 68.3418L59.8486 67.7192L60.6372 67.1382L61.2183 66.6816L61.6748 66.3081L62.2144 65.8516L62.6709 65.4365L63.0029 65.146L63.418 64.731L63.75 64.4404L64.4141 63.7349L64.7046 63.4443L64.9951 63.1123L65.4932 62.5312L66.0742 61.8257L66.6968 60.9956L67.2363 60.2485L67.6514 59.626L68.1494 58.8374L68.7305 57.8413L69.3115 56.7622L69.9341 55.4756L70.5566 53.9814L71.1377 52.3213L71.5942 50.7441L71.9678 49.084L72.2168 47.6729L72.4243 45.9297L72.5073 44.7676V41.6548L72.3828 40.0361L72.1753 38.459L71.8848 36.8818L71.5527 35.5122L71.2207 34.3501L70.7227 32.856L70.2661 31.6938L69.8096 30.6562L69.3115 29.6187L68.8135 28.6641L68.1494 27.5435L67.6514 26.7549L67.0288 25.8418L66.4478 25.0532L65.9912 24.4722L65.6177 24.0156L65.1611 23.4761L64.7046 22.978L64.4141 22.646L64.0405 22.2725L63.75 21.9404L62.3804 20.6538L61.9238 20.2803L61.3428 19.7822L60.6372 19.2427L59.9731 18.7446L59.0186 18.0806L58.2715 17.624L57.4414 17.126L56.6943 16.7109L55.5737 16.1299L54.4116 15.5903L53.1665 15.0923L51.6309 14.5527L49.8877 14.0547L48.186 13.6812L46.6919 13.4321L45.2393 13.2661L44.0771 13.1831H40.9229Z" fill="#FEFEFE"/>
<path id="Vector_2" d="M41.5044 28.7891H43.4551L44.6172 28.9136L45.6963 29.1211L46.8999 29.4531L48.0205 29.8682L49.2241 30.4492L50.0957 30.9473L50.7598 31.4038L51.4238 31.9019L52.0464 32.4414L52.5859 32.9395L52.918 33.2715L53.2085 33.6035L53.7065 34.1846L54.2461 34.9316L54.6611 35.5542L55.0347 36.2183L55.4912 37.0898L55.9478 38.2104L56.2798 39.248L56.5288 40.3271L56.6948 41.4062L56.7778 42.4023V43.7305L56.6948 44.7266L56.5288 45.8057L56.2798 46.8848L55.8232 48.2544L55.3667 49.292L54.8687 50.2466L54.3706 51.0352L53.7896 51.8237L53.416 52.2803L52.6689 53.1104L52.2124 53.5669L51.8804 53.8574L51.1748 54.4385L50.4692 54.9365L49.6807 55.4346L48.8506 55.8911L47.73 56.3892L46.3604 56.8457L45.3228 57.0947L43.9946 57.3022L43.4551 57.3438H41.5044L40.6743 57.2607L39.4292 57.0532L38.1841 56.7212L37.354 56.4307L36.3994 56.0156L35.5693 55.6006L34.7393 55.1025L34.0337 54.6045L33.4941 54.1895L32.9131 53.6914L32.249 53.0688L31.7095 52.4878L31.3359 52.0312L30.9209 51.4917L30.2568 50.4956L29.7588 49.624L29.2607 48.5449L28.8457 47.4243L28.5137 46.1792L28.3477 45.3076L28.2231 44.27L28.1816 43.606V42.5269L28.2646 41.4478L28.4307 40.3687L28.7212 39.1235L29.0947 38.0029L29.4683 37.1313L29.8003 36.4673L30.1738 35.7617L30.8379 34.7656L31.2114 34.2676L31.668 33.728L32.0415 33.313L32.5396 32.7734L32.8716 32.4829L33.3281 32.0679L34.0337 31.5283L34.7393 31.0303L35.5278 30.5737L36.4824 30.0757L37.4785 29.6606L38.4746 29.3286L39.4707 29.0796L40.6743 28.8721L41.5044 28.7891Z" fill="#FEFEFE"/>
<path id="Vector_3" d="M42.458 36.5078L42.624 36.5493L43.6201 37.2134L44.2012 37.6284L44.1182 37.7944L43.7861 38.3755L43.5371 38.9565L43.3711 39.5791L43.3296 39.8281V41.2808L43.4541 41.9863L43.8276 43.1484L43.9106 43.522L43.9521 44.269L43.8691 44.8086L43.6616 45.3481L43.5371 45.6387L43.4956 46.1782L43.6201 46.5518L43.7861 46.7593L44.1182 46.9253L44.2427 46.9668H44.7407L45.1143 46.8008L45.4463 46.5103L45.6953 46.0952L45.7783 45.8047V45.0161L45.4878 43.688L45.0728 42.2769L44.9482 41.5713L44.9067 41.1978V40.2017L45.0312 39.4961L45.2388 38.915L45.5293 38.417L45.6538 38.251L45.9028 38.2925L46.6914 38.7075L47.2725 38.998L47.231 39.2056L46.9819 40.2432V40.8657L47.1064 41.6958L47.3555 42.6089L47.7705 43.688L47.895 44.1445V44.7671L48.4761 44.6426H48.7251L48.8081 44.6841V44.7671L48.6006 44.9331L48.3101 45.5142L48.144 46.2197L48.0195 46.9253L47.8535 47.3818L47.563 47.8384L47.1895 48.1704L46.6084 48.4609L46.0273 48.5854H45.5293L44.9897 48.5439L45.2388 48.959L45.5708 49.291V49.374H43.4956L42.9561 49.1665L42.624 48.9175L42.4995 48.793L42.3335 49.0005L41.9185 49.2495L41.5449 49.374H39.4697L39.5527 49.208L39.8433 48.9175L40.0093 48.627V48.5439L39.5112 48.5854H39.0547L38.4736 48.4609L38.1001 48.2949L37.7266 48.0459L37.3945 47.7139L37.1455 47.2988L36.9795 46.7178L36.8135 45.7632L36.606 45.1821L36.2324 44.6841L36.3154 44.6426L36.855 44.6841L37.1455 44.7671V44.186L37.3115 43.5635L37.6851 42.6089L37.9341 41.7373L38.0586 40.9072V40.2017L37.8096 39.1641L37.7681 38.998L39.0962 38.334L39.2207 38.251L39.4282 38.2925L39.7188 38.749L39.9263 39.2056L40.0923 39.8281L40.1338 40.1187V41.2808L40.0093 42.1108L39.7188 43.1484L39.4282 44.2275L39.2622 45.0576V45.7632L39.4282 46.2612L39.7188 46.6348L40.0923 46.8838L40.2998 46.9668H40.7979L41.1714 46.8008L41.3789 46.6348L41.5449 46.2197V45.8462L41.4619 45.4727L41.2129 44.9331L41.1299 44.6011V43.605L41.3374 42.7334L41.5449 42.1523L41.7109 41.3223V39.7866L41.5034 38.915L41.2129 38.251L40.8394 37.6699L41.0469 37.4624L41.6694 37.0474L42.458 36.5078Z" fill="#F46927"/>
<path id="Vector_4" d="M42.251 14.5527H42.334L42.749 15.3828L43.1641 16.1714L43.8696 17.5825L44.3677 18.4956L44.9902 19.5747L45.4883 20.3633L46.4014 21.7329L46.9409 22.48L47.439 23.144L48.02 23.8911L48.3936 24.3477L48.8501 24.8872L49.2236 25.3438L49.8047 25.9663L50.0952 26.2983L50.5933 26.8379L52.0874 28.332L52.4194 28.6226L52.959 29.1206L53.4155 29.4941L54.0381 30.0337L54.6191 30.4902L55.3662 31.0713L56.0303 31.5693V32.5239L55.9888 34.5161L55.7812 34.4331L54.9512 33.8521L54.3701 33.437L53.7061 32.939L53.1665 32.5239L52.5024 31.9844L52.0459 31.6108L51.4648 31.1128L51.0083 30.6978L50.6763 30.4072L50.1367 29.9092L48.3105 28.083L48.02 27.751L47.0239 26.5889L46.6919 26.1738L46.1523 25.5098L45.6128 24.8042L45.0317 24.0571L44.4922 23.3101L43.5376 21.8574L42.832 20.6953L42.4585 20.0312L42.3755 19.9897L42.2925 20.1973L41.5869 21.4009L40.6738 22.7705L40.2173 23.4346L39.6362 24.2231L38.7646 25.3438L37.478 25.1777L36.1084 24.9287L35.9424 24.8872L36.0254 24.7212L36.5234 24.1401L36.98 23.5591L37.478 22.9365L38.0591 22.1479L38.6401 21.3179L39.3457 20.2388L39.9683 19.2012L40.5493 18.1636L41.0889 17.0845L41.7114 15.7148L42.251 14.5527Z" fill="#FEFEFE"/>
<path id="Vector_5" d="M28.2227 35.2637H28.3057L28.2227 37.0898L28.0566 38.916L27.8076 40.7422L27.5171 42.3193L27.1436 43.9795L26.687 45.6396L26.355 46.7188L25.6909 48.4204L25.1099 49.7485L24.6118 50.8276L24.2798 51.4917L23.6987 52.5708L23.1177 53.5254L22.4951 54.48L24.5288 54.5215L26.189 54.6045L27.9321 54.7705L28.4302 54.8535L28.7622 55.5176L29.2188 56.5552L29.5508 57.3853V57.5098L27.6831 57.2607L25.8154 57.0947L25.0269 57.0532H20.5859L18.2202 57.1777H17.5146L18.2617 56.1816L18.8013 55.5176L19.2163 54.978L19.8804 54.1064L20.5029 53.1519L21.1255 52.1143L21.665 51.1182L22.2461 49.9976L22.6196 49.292L23.3252 47.6318L23.6987 46.6772L23.8647 46.1377L24.3628 44.6021L24.7778 43.1079L25.1099 41.5723L25.4004 39.9121L25.6494 37.8369L25.7324 36.7163L26.106 36.4673L26.8945 36.0522L27.8906 35.4712L28.2227 35.2637Z" fill="#FEFEFE"/>
<path id="Vector_6" d="M61.1768 47.0918H61.2598L61.8823 48.6689L62.4219 49.8726L62.8784 50.8271L63.3765 51.7402L63.916 52.6948L64.4141 53.4834L64.7461 53.9814L65.2441 54.687L65.7837 55.3511L66.2817 56.0151L66.8628 56.7622L67.3608 57.4263V57.4678L66.4893 57.4263L63.2104 57.1772H59.2676L57.5244 57.3018L56.1133 57.4678L54.5776 57.7168L53.5815 57.9243L52.3364 58.2148L51.0498 58.5469L49.4727 59.0449L47.9785 59.5845L46.7749 60.0825L45.7373 60.5391L45.5713 60.4976L44.5752 59.875L43.9526 59.5015L43.2471 59.0864V58.9619L44.6997 58.2563L46.3184 57.5508L47.937 56.9282L49.5142 56.3887L51.2573 55.8906L52.7515 55.5171L54.7021 55.1436L55.7812 54.9775L57.6904 54.77L58.8525 54.687L61.2598 54.604L61.5918 54.5625H62.1313L61.7163 53.8569L61.1353 52.8608L60.4297 51.5327L59.8901 50.3706L59.4751 49.416L59.5166 49.2085L60.0977 48.4199L60.6372 47.7559L61.0107 47.2993L61.1768 47.0918Z" fill="#FEFEFE"/>
<path id="Vector_7" d="M59.5161 33.8516L59.7236 33.9346L61.0518 34.6401L62.7119 35.4702L64.04 36.0513L65.6172 36.6738L67.0698 37.1719L68.6055 37.5869L70.6807 38.1265V38.251L68.8545 39.4546L67.4434 40.4092L66.6548 40.9902L65.9907 41.5298L65.5342 41.9033L64.9531 42.4014L64.3306 42.9824L63.791 43.4805L62.9194 44.3521L62.6289 44.6841L62.3384 44.9746L62.0479 45.3066L61.6328 45.7632L61.2593 46.2197L60.8442 46.6763L60.4707 47.1328L59.8896 47.8384L59.3916 48.5024L58.8936 49.208L58.437 49.9136L58.1465 50.4116L57.9805 50.7437L57.3579 51.7812L56.9429 52.5283L56.4448 53.4829L56.1128 54.1055L55.9883 54.396L53.7471 54.811L53.1245 54.9355L53 54.894L53.6226 53.5244L54.2036 52.3208L55.1997 50.4946L55.9053 49.3325L56.4033 48.5439L56.7354 48.0459L57.1919 47.3818L57.7314 46.6348L58.1465 46.0952L58.437 45.6802L58.8936 45.1406L59.2671 44.6841L59.7651 44.1445L60.0557 43.8125L60.5122 43.3145L61.1348 42.6504L61.9648 41.8203L62.2969 41.5298L62.9609 40.9072L63.4175 40.5337L64.04 39.9941L64.7456 39.4546L65.0776 39.2056L65.1191 39.1226L64.6626 38.998L63.5005 38.5415L62.3384 38.0435L61.2593 37.5454L60.3877 37.1304L59.5576 36.6738L59.5161 35.9683V33.8516Z" fill="#FEFEFE"/>
<path id="Vector_8" d="M26.895 46.7188H26.978L27.3931 47.2998L27.8911 48.0054L28.7212 49.2505L29.2192 50.0391L29.7588 50.9521L30.3398 51.9897L30.8379 52.9443L31.1699 53.5669L31.7095 54.729L32.0415 55.4761L32.2075 55.8081L32.7471 57.3022L33.3281 59.0039L33.8677 60.7471L34.3242 62.5732L34.6562 64.2334L34.6978 64.6899L35.1543 64.3164L35.6938 63.8599L36.2749 63.4033L37.1465 62.7393L37.8936 62.1997L39.2632 61.2866L39.4292 61.1621L39.6782 61.2036L40.9233 61.8262L41.8779 62.3657L42.0024 62.4902L41.5874 62.7808L40.9648 63.1543L39.7197 63.9844L39.0142 64.4824L38.2256 65.0635L37.6445 65.52L36.9805 66.0596L36.4409 66.5161L35.8599 67.0142L35.1543 67.6782L34.4902 68.3423L34.1997 68.6743L32.9961 69.9609L32.8301 70.0439L32.498 66.8066L32.249 65.0635L32 63.6938L31.6265 62.0752L31.2944 60.8301L30.8379 59.3774L30.4229 58.1738L30.2153 57.6343L30.0493 57.3022L29.5928 56.1401L28.9702 54.7705L28.1816 53.2349L27.6006 52.2388L27.2271 51.5747L26.6045 50.5786L25.8574 49.458L25.8989 49.209L26.563 47.5903L26.895 46.7188Z" fill="#FEFEFE"/>
<path id="Vector_9" d="M60.8862 21.1523H60.9692L60.8032 21.8994L60.1392 24.5142L59.8071 26.1328L59.5166 27.8345L59.2676 29.8682L59.1016 31.4868L59.0186 32.9395V36.1768L59.1016 37.3389L59.3091 38.9575L59.5581 40.6592L59.8486 42.1948L60.0146 42.9004V43.1079L59.6826 43.4399L59.3921 43.772L59.0186 44.187L58.645 44.6436L58.2715 45.0586L58.064 45.2661L57.9395 44.9341L57.4829 43.1079L57.1509 41.4478L56.9019 39.8706L56.7358 38.4595L56.6113 37.0483L56.5283 34.9316V33.1885L56.5698 31.9849L56.7773 29.6191L57.0679 27.4194L57.3584 25.8008V25.5518L55.9888 26.0913L54.2871 26.6724L52.4194 27.2119L51.9214 27.3364L51.7554 27.2949L50.8838 26.4233L50.5933 26.0913L50.0537 25.5103L49.8877 25.2612L50.1367 25.1782L51.8799 24.7632L53.374 24.3481L55.4077 23.6841L57.0264 23.0615L58.396 22.439L59.3921 21.9409L60.1807 21.5259L60.8862 21.1523Z" fill="#FEFEFE"/>
<path id="Vector_10" d="M24.1553 21.2344L24.9854 21.6079L25.8984 22.0645L26.853 22.521L27.9321 23.019L29.0527 23.4756L30.1733 23.8906L31.709 24.3887L33.2031 24.8037L34.7803 25.1772L36.6479 25.5508L38.3081 25.7998L39.5532 25.9243L42.168 26.0073L44.0771 25.9658L45.3638 25.8828H45.7788L46.1108 26.2563L46.4429 26.6714L46.8994 27.2109L47.3975 27.792L47.6465 28.124L47.2314 28.207L45.6958 28.373L44.4922 28.4561L43.4546 28.4976H41.3379L39.6777 28.4146L38.2666 28.29L36.6895 28.0825L35.4858 27.875L33.5767 27.46L31.8335 27.0034L30.3809 26.5469L28.8867 26.0073L27.5586 25.4678L27.6001 25.8413L27.8906 27.6675L28.0981 29.4521L28.2227 31.1123L27.7246 31.4443L26.8945 31.9839L26.0645 32.4819L25.8154 32.6064L25.6494 29.9917L25.4419 27.9165L25.1929 26.0488L24.8608 24.1812L24.5703 22.936L24.1553 21.3589V21.2344Z" fill="#FEFEFE"/>
<path id="Vector_11" d="M32.6641 55.5996L33.4111 55.7656L35.3618 56.3052L37.2295 56.9277L38.8481 57.5503L40.1763 58.1313L41.5874 58.7954L42.542 59.2935L43.04 59.5425L44.1606 60.2065L44.9492 60.7046L45.9868 61.3687L46.6509 61.8667L47.1904 62.2817L47.896 62.8628L48.4771 63.3608L49.0996 63.9004L49.5562 64.3154L49.8882 64.606L50.0957 64.7305L50.5522 62.4062L50.9673 60.6216L51.3408 59.335L51.5068 58.9614L52.5859 58.6709L54.0801 58.3389H54.2876L54.2461 58.5464L53.748 60.0405L53.25 61.7007L52.752 63.6929L52.4199 65.353L52.1709 67.0132L52.0464 70.043L51.8804 69.96L50.0542 67.9678L49.2241 67.1377L48.8921 66.8472L48.3525 66.3491L47.896 65.9756L47.3149 65.4775L46.7339 65.021L45.9868 64.4399L45.4058 64.0249L44.5757 63.4438L43.7456 62.9043L42.874 62.3647L41.8779 61.7837L40.8818 61.2441L39.7197 60.6631L38.3086 60.0405L36.939 59.501L35.7769 59.0859L34.6562 58.7124L33.7017 58.4219L33.5356 58.0068L33.0376 56.5957L32.6641 55.6411V55.5996Z" fill="#FEFEFE"/>
<path id="Vector_12" d="M32.9956 27.875L33.3276 27.9165L35.6104 28.4146L35.9009 28.4976L35.6519 28.7881L35.2368 29.1616L34.7388 29.6182L34.2822 29.9917L33.8672 30.3652L33.2861 30.8218L32.7466 31.2783L32.207 31.6934L31.626 32.1499L30.8789 32.731L30.0903 33.312L29.2188 33.9761L28.6377 34.3911L28.2227 34.6816L27.2266 35.2627L26.106 35.8853L24.7778 36.5908L23.9893 37.0059L22.8271 37.5454L21.3745 38.168L19.8804 38.749L19.6729 38.832H19.5483L19.7559 39.0396L20.2539 39.4961L20.7104 39.8696L21.001 40.1602L21.333 40.4507L21.9971 41.0732L23.4912 42.5674L23.7817 42.8994L24.1553 43.3145L24.0308 43.8955L23.7402 44.8916L23.3667 46.0122L23.2837 46.0952L22.8687 45.6387L22.4951 45.1821L21.8311 44.4766L21.4575 44.0615L20.7935 43.356L19.5068 42.0693L19.1748 41.7788L18.8428 41.4468L18.5107 41.1562L18.0542 40.7412L17.5977 40.3677L17.2241 40.0356L16.6431 39.5791L16.1865 39.2471L15.1904 38.6245L14.2773 38.0435L14.4019 37.9604L17.0996 37.1719L18.4277 36.7153L20.0879 36.0513L21.2915 35.5117L22.7856 34.8062L24.4458 33.9761L25.3589 33.478L26.521 32.814L27.3926 32.2744L28.2642 31.6934L28.8452 31.2783L29.3848 30.8633L30.0073 30.3652L30.5054 29.9917L31.4185 29.2446L31.9995 28.7466L32.4146 28.373L32.7466 28.0825L32.9956 27.875Z" fill="#FEFEFE"/>
<path id="Vector_13" d="M55.7812 43.0664H55.9058V43.689L55.8228 44.6851L55.6152 45.9302L55.3247 47.0093L54.9927 47.9639L54.5361 49.0015L54.1626 49.707L53.9966 49.624L53.5815 49.209L53.291 48.877L52.0874 47.6733L51.7969 47.3413L50.5933 46.1377L50.3027 45.8057L49.4727 44.9756V44.8926L50.2612 44.6436L54.6191 43.3984L55.7812 43.0664Z" fill="#F46927"/>
<path id="Vector_14" d="M54.0796 36.3838L54.2456 36.5913L54.5776 37.2139L55.0757 38.376L55.4492 39.5381L55.6982 40.6172L55.8228 41.4473L55.9058 42.4849V43.0244L55.4907 42.9414L49.4727 41.2397L49.5557 41.0322L50.6763 39.9116L50.9668 39.5796L51.8384 38.708L52.1289 38.376L53.042 37.4629L53.3325 37.1309L54.0796 36.3838Z" fill="#F46927"/>
<path id="Vector_15" d="M29.1772 43.1074L29.8413 43.2734L35.5688 44.8921L35.5273 45.0581L34.7388 45.8467L34.4482 46.1787L33.5352 47.0918L33.2446 47.4238L32.4146 48.2539L32.124 48.5859L31.2109 49.499L31.0034 49.748H30.9204L30.3394 48.6274L29.8828 47.5068L29.5923 46.5522L29.3433 45.4731L29.2188 44.6431L29.1357 43.481V43.1489L29.1772 43.1074Z" fill="#F46927"/>
<path id="Vector_16" d="M41.5039 29.7012H42.2925L42.251 30.0332L41.0059 34.4326L40.5493 36.0513L40.5078 36.1343L40.3418 36.0513L39.3457 35.0552L39.0137 34.7646L38.1421 33.8931L37.8101 33.6025L36.897 32.6895L36.5649 32.3989L35.6934 31.5273L35.8594 31.3613L36.6479 30.9463L37.644 30.5312L38.7646 30.1577L39.8438 29.9087L40.9644 29.7427L41.5039 29.7012Z" fill="#F46927"/>
<path id="Vector_17" d="M44.3677 49.9971L44.5337 50.0801L45.4468 50.9932L45.7788 51.2837L46.6504 52.1553L46.9824 52.4458L47.8955 53.3589L48.2275 53.6494L49.0991 54.521L49.1821 54.5625V54.687L48.0615 55.2681L47.0239 55.6831L46.1108 55.9736L45.0732 56.2227L43.9526 56.3887L43.4131 56.4302H42.583L42.6245 56.1396L43.4546 53.1929L44.3262 50.1216L44.3677 49.9971Z" fill="#F46927"/>
<path id="Vector_18" d="M42.541 29.7012H43.4126L44.5332 29.8257L45.6123 30.0332L46.6499 30.3237L47.563 30.6558L48.5591 31.1123L49.1401 31.4443L49.0571 31.6104L48.3931 32.2744L48.061 32.5649L46.8574 33.7686L46.5254 34.0591L45.3633 35.2212L45.0312 35.5117L44.4087 36.1343L44.3257 36.0928L43.3296 32.6479L42.707 30.4482L42.541 29.8672V29.7012Z" fill="#F46927"/>
<path id="Vector_19" d="M40.6323 49.9971L40.7153 50.0386L41.5039 52.7363L42.5415 56.3887V56.4302H41.6284L40.7568 56.3472L39.8022 56.1812L38.9307 55.9736L37.6855 55.5586L36.6479 55.1021L35.9424 54.7285V54.5625L36.2329 54.272L36.5649 53.9814L37.7686 52.7778L38.1006 52.4873L39.2627 51.3252L39.5947 51.0347L40.6323 49.9971Z" fill="#F46927"/>
<path id="Vector_20" d="M30.9204 36.4258L31.2109 36.6748L31.543 37.0068L31.8335 37.3389L33.0371 38.5425L33.3276 38.8745L34.5312 40.0781L34.8218 40.4102L35.5688 41.1572L35.5273 41.2817L33.3276 41.9043L29.5923 42.9834L29.3018 43.0664H29.1357L29.1772 41.9458L29.3018 40.9082L29.5508 39.7461L29.8828 38.6255L30.3394 37.5049L30.7959 36.5918L30.9204 36.4258Z" fill="#F46927"/>
<path id="Vector_21" d="M35.7354 31.5273H35.8184L36.0259 32.2744L37.188 36.8813L37.437 37.8359V38.002L36.939 37.9189L31.6265 36.5908L31.0039 36.4248V36.2588L31.4189 35.5947L31.834 35.0137L32.3735 34.3496L32.8301 33.8516L33.5771 33.1045L34.0337 32.731L34.6562 32.2329L35.5278 31.6519L35.7354 31.5273Z" fill="#F46927"/>
<path id="Vector_22" d="M47.6055 48.1289L48.062 48.2119L53.748 49.623L54.0801 49.7476L53.9971 49.9551L53.582 50.6191L53.084 51.2832L52.7104 51.7397L52.3369 52.1548L51.8804 52.6528H51.7974V52.7358L51.4653 53.0264L51.0503 53.3999L50.2202 54.0225L49.5977 54.4375L49.3071 54.6035H49.2241L48.8506 53.1924L48.1865 50.5361L47.6055 48.2534V48.1289Z" fill="#F46927"/>
<path id="Vector_23" d="M49.1826 31.5273L49.3901 31.5688L50.3862 32.2329L50.9673 32.6895L51.5483 33.1875L52.5859 34.2251L52.9595 34.6816L53.3745 35.2212L53.8726 35.9683L54.0801 36.3418L53.7065 36.4663L50.2617 37.3379L47.6055 38.002L47.647 37.6284L48.311 34.9307L48.9751 32.3159L49.1411 31.6104L49.1826 31.5273Z" fill="#F46927"/>
<path id="Vector_24" d="M37.3955 48.1289L37.4785 48.2119L36.7314 51.2002L36.0674 53.8979L35.8599 54.645L35.4448 54.4375L34.7808 53.981L34.2827 53.6074L33.8262 53.2339L33.3281 52.7773L32.498 51.9473L32.1245 51.4907L31.585 50.7852L31.1699 50.1626L31.0039 49.8721L31.0454 49.7476L33.6187 49.0835L36.2749 48.4194L37.3955 48.1289Z" fill="#F46927"/>
<path id="Vector_25" d="M76.2017 46.1367H76.9487L77.4468 46.3027L77.8618 46.5933L78.1523 47.0083L78.2769 47.2988V47.9629L78.1108 48.3779L77.9033 48.627L77.6958 48.71L77.9033 49.1665L77.9448 49.291V49.7891L77.7788 50.2456L77.6128 50.4946L77.2808 50.7852L76.9902 50.9512L77.2393 51.2832L77.4053 51.6567L77.4468 51.8228V52.4453L77.2808 52.9849L77.0317 53.3584L76.7412 53.6074L76.2847 53.8149L76.0771 53.8564H75.5376L74.998 53.6904L74.583 53.3169L74.334 52.9019L74.2095 52.5698L74.168 52.3208V51.9058L74.2925 51.4077L74.5415 50.9927L74.915 50.6606L75.4131 50.4116L75.9111 50.3701L76.2847 50.3286L76.7827 50.1626L76.9487 50.0381H77.0317L77.1147 49.8306L77.1978 49.457L77.0732 49.125L76.7827 48.876L76.4922 48.7515H75.9526L75.5376 48.959L75.4131 49.208L75.2056 50.1211L75.0396 50.4531L74.749 50.7021L74.3755 50.8267L73.9604 50.7852L74.002 50.4116L74.085 50.0381H74.334L74.5415 49.8721L74.6245 49.54L74.5 49.208L74.085 48.7515L73.8774 48.4194L73.8359 48.2949V47.8799L73.9604 47.5894H74.251L74.666 47.6724L74.583 47.8384L74.5415 48.1704L74.7075 48.4194L74.915 48.627L75.2056 48.3364L75.6206 48.1289L75.9526 48.0459H76.4507L76.9487 48.0874L77.3638 47.9214L77.5298 47.7139V47.3403L77.2393 47.0083L76.8242 46.8423H76.2847L75.8696 47.0498L75.7451 47.3403L75.7036 47.5894L75.2471 47.5479L75.0396 47.4648L75.0811 47.0498L75.2471 46.7178L75.5791 46.3857L76.0356 46.1782L76.2017 46.1367Z" fill="#F46927"/>
<path id="Vector_26" d="M9.13086 51.2012H9.5459L9.96094 51.3257L10.4175 51.6162L10.708 51.9067L10.9985 52.4878L11.0815 52.8613V53.1934L10.957 53.6499L10.7495 54.0234L10.5005 54.314L10.1685 54.5215L9.96094 54.646L9.62891 54.978L9.46289 55.2271L9.42139 55.3516V55.7251L9.5459 55.9741L9.75342 56.1401L10.0024 56.2231H10.376L10.7495 56.0986L11.04 55.8496L11.1646 55.6421V55.1855L10.9155 54.397V53.9404L11.0815 53.5669L11.4136 53.2764L11.6626 53.1934L11.8286 53.5669L11.9116 53.7744L11.8701 53.9404L11.7041 54.0234L11.6626 54.1064V54.5215L11.8286 54.729L12.8247 55.144L13.0322 55.3101L13.1982 55.6006L13.2397 55.9741L13.0322 56.0986L12.5757 56.2231L12.5342 55.8496L12.3682 55.6836L12.0361 55.5591H11.9116L11.7871 55.9326L11.5381 56.3062L11.1646 56.6382L10.7495 56.8457L10.4175 56.9702L10.1685 57.3022L10.127 57.3853V57.7588L10.3345 57.9663L10.542 58.0493H11.0815L11.4551 57.8833L11.6626 57.7173L11.8286 57.4268V57.0947L11.7456 56.8042L12.1606 56.6382L12.3682 56.5967L12.5342 56.9702V57.5513L12.2852 58.0493L12.0776 58.2983L11.6211 58.5889L11.2061 58.7549L10.9985 58.7964H10.542L10.0439 58.6304L9.79492 58.4644L9.5874 58.2568L9.37988 57.9663L9.29688 57.7173L9.25537 57.3438L9.33838 56.9702L9.42139 56.7627L9.21387 56.6797L8.92334 56.4307L8.67432 55.9326L8.63281 55.7251V55.2686L8.79883 54.812L8.96484 54.5215L8.75732 54.48L8.30078 54.1895L8.05176 53.8989L7.80273 53.4009L7.71973 53.0688V52.5293L7.88574 52.0728L8.13477 51.7407L8.42529 51.4917L8.92334 51.2427L9.13086 51.2012Z" fill="#F46927"/>
<path id="Vector_27" d="M63.792 65.9346L63.958 65.9761L64.2485 66.3081V66.4326L63.8335 66.8477L63.5015 67.1382L62.8374 67.7607L62.7129 67.8853L62.7544 68.0928L62.9619 68.0513L63.2524 67.7607L63.5845 67.4702L64.124 66.9722L64.29 67.0552L64.5806 67.3872L64.373 67.6362L64.041 67.9268L63.377 68.5493L63.3354 68.6738L63.377 68.7568L63.5845 68.7153L64.0825 68.2588L64.4976 67.9268L64.9541 67.7607L65.5352 67.7192L65.9502 67.8022L66.3237 68.0098L66.5312 68.1758L66.7803 68.4663L67.0708 68.5908H67.4028L67.6104 68.5078L67.6934 68.0928L67.5688 67.5947L67.2368 67.2212L66.8218 67.0552H66.4897L66.2407 67.2212L66.1162 67.3457L65.9502 67.2627L65.6182 66.8892L65.8672 66.5986L66.1162 66.4326L66.4067 66.3496H66.8633L67.2783 66.4741L67.6934 66.7231L68.0669 67.0967L68.2744 67.4287L68.3989 67.8853V68.3833L68.2329 68.8398L67.8594 69.2549L67.4858 69.4624L67.3198 69.5039H67.0293L66.9878 69.8359L66.7803 70.251L66.4482 70.5415L66.0747 70.666L65.9087 70.7075L65.7842 71.0811L65.5352 71.4131L65.2031 71.6621L64.9126 71.7451L64.5391 71.7036L64.207 71.5376L63.9165 71.2471L63.7505 70.8735V70.417L63.875 70.085L64.2485 69.6699L64.5806 69.5039H65.1616L65.4937 69.6284L65.7427 69.8359H66.0332L66.2407 69.6284L66.2822 69.2549L66.1577 68.8813L65.9502 68.6323L65.6597 68.4663L65.4937 68.4248H65.2031L64.8296 68.5493L64.373 68.8813L63.875 69.3379L63.626 69.5454H63.0864L62.8374 69.3794L62.6714 69.1304V68.8813L62.3394 68.8398L62.0903 68.6738L61.9243 68.4663L61.8828 68.3833V67.8438L62.1318 67.4702L62.4639 67.1797L63.1279 66.5571L63.626 66.1006L63.792 65.9346Z" fill="#F46927"/>
<path id="Vector_28" d="M76.7817 29.2031H77.1968L77.5288 29.3691L77.7363 29.6182L78.2759 31.1538L78.5249 31.8594L78.4834 32.0254L77.9438 32.1914L77.7778 31.7764L77.1968 30.1162L76.9893 30.0747L76.9478 30.2407L77.4458 31.7349V31.8594L77.0308 32.0254H76.8647L76.3252 30.4897L76.2837 30.4067L76.0762 30.4482L76.3667 31.4858L76.4082 31.6104V32.2744L76.2007 32.814L75.8687 33.229L75.4536 33.478L74.9971 33.644L74.7896 33.8516L74.7065 33.9761V34.3496L74.8726 34.5571L75.2876 34.6816L75.7026 34.6401L76.0762 34.4741L76.3667 34.1421L76.4082 34.0591V33.644L76.3667 33.395L76.7817 33.229L76.9478 33.1875L77.1138 33.561V34.1421L76.8647 34.6401L76.6572 34.8892L76.2007 35.1797L75.7856 35.3457L75.5781 35.3872H75.1216L74.6235 35.2212L74.25 34.9722L74.001 34.6401L73.8765 34.2666L73.835 33.8516L73.9595 33.395L73.752 33.312L73.4199 32.9385L73.2539 32.4819L73.2954 32.1084L73.3784 31.9009L73.1709 31.8179L72.9219 31.4858L72.7559 31.0708V30.6973L72.8804 30.4067L73.1709 30.0747L73.5444 29.9087L73.9595 29.8672L74.416 30.0332L74.665 30.2407L74.8726 30.5728L74.9556 30.8218V31.2368L74.8311 31.5688L74.4575 31.9839L74.1255 32.1914L74.084 32.3574L74.2085 32.6895L74.5405 32.8555H74.9971L75.3706 32.6895L75.6196 32.3989L75.7026 32.1914V31.6104L75.4536 30.7803L75.3291 30.4067L75.3706 30.0747L75.5366 29.7842L75.8271 29.6182H76.2007H76.3252L76.4912 29.3691L76.7817 29.2031Z" fill="#F46927"/>
<path id="Vector_29" d="M59.8901 11.9375L60.2637 12.145L61.0107 12.6431L62.2144 13.4316L63.7085 14.4277L63.999 14.7598L64.165 15.2163V15.7974L63.999 16.2954L63.75 16.6689L63.4595 16.918L63.1274 17.084L62.9614 17.1255H62.6709L62.3389 17.001L62.0483 16.7935L61.8408 16.3784V15.8389L62.0898 15.4238L62.3389 15.2578L62.4634 15.2163H63.0859L63.418 15.3408V15.2163L63.0444 14.9258L62.2144 14.3862V14.8013L62.0068 15.2993L61.7163 15.6729L61.3013 15.9219L60.8447 16.0464H60.3052L59.7656 15.8804L59.3091 15.5898L59.0186 15.2578L58.811 14.8428L58.7695 14.6353V14.1372L58.894 13.7222L59.1431 13.2656L59.4751 12.9751L59.7241 12.8506H59.8071L59.4751 12.5186L59.8901 11.9375Z" fill="#F46927"/>
<path id="Vector_30" d="M46.2358 5.6709H46.7339L47.1074 5.83691L47.3979 6.16895L47.5225 6.50098L47.564 6.95752L47.5225 6.99902H46.8999L46.8169 6.95752L46.7754 6.50098L46.6509 6.37646L46.4019 6.33496L46.2358 6.37646L46.1528 6.7915L46.3604 6.87451L46.5264 7.08203L46.6094 7.24805V7.74609L46.4019 8.07812L46.2773 8.24414L46.6094 8.61768L46.7754 9.03271L46.8169 9.24023V9.73828L46.6924 10.2363L46.4434 10.6514L46.1113 10.9419L45.6548 11.1079H45.2397L44.9907 10.9419L44.8247 10.7759L44.6587 10.8174L44.3682 10.9834L44.2437 11.0249H43.9531L43.5796 10.9004L43.2891 10.6514L43.0815 10.2778L42.957 9.86279V9.36475L43.0815 8.8667L43.3306 8.45166L43.7041 8.11963L44.2437 7.87061L44.4097 7.8291H45.7793L45.8623 7.7876L45.9038 7.53857L45.8208 7.41406L45.0322 7.33105L43.3306 7.20654L43.2891 7.16504V6.66699L43.3306 6.58398H43.8286L45.5303 6.7085V6.33496L45.6963 6.00293L45.9453 5.79541L46.2358 5.6709Z" fill="#F46927"/>
<path id="Vector_31" d="M37.6025 75.9785H38.0591L41.4209 76.3105L42.0435 76.4351L42.3755 76.6841L42.583 76.9331L42.749 77.3481V78.0952L42.583 78.5103L42.2095 78.9253L41.8774 79.0913L41.7114 79.1328H41.3379L41.0059 79.0083L40.7153 78.7178L40.5908 78.4688L40.5493 78.1367L40.6738 77.7217L40.8398 77.4727L41.0889 77.3066L41.3794 77.2236H41.9189L41.5869 77.0576L40.4663 76.8916V77.1821L40.3003 77.4312L40.1758 77.5557L40.2588 77.8047L40.3833 78.0952V78.5518L40.2173 78.9668L40.0513 79.1743L39.6362 79.4233L39.3457 79.5063H38.8062L38.3911 79.3818L38.0176 79.1328L37.7686 78.7178L37.7271 78.5103V78.2197L37.8516 77.8462L38.0176 77.5972L37.6855 77.7217L37.561 77.9292L37.5195 78.0537V78.5933L36.8555 78.5518L36.7725 78.4688V78.0537L36.897 77.6802L37.146 77.3896L37.644 77.1406L38.0176 77.0576H39.1382L39.5947 77.1406L39.7607 77.1821V76.8501L37.6025 76.6426L37.5195 76.6011L37.561 76.103L37.6025 75.9785Z" fill="#F46927"/>
<path id="Vector_32" d="M33.3271 7.74609L33.4932 7.7876L33.6592 8.41016V8.53467H33.2026L32.9536 8.74219L32.8291 9.03271L33.0366 8.99121H33.6177L34.0327 9.15723L34.3647 9.44775L34.6138 9.86279L34.8213 10.4023L34.9458 10.6929L35.1948 10.9004L35.4854 10.9419L35.7344 10.8174L35.9004 10.4854L35.9419 10.0703L35.8174 9.61377L35.5269 9.28174L35.3608 9.19873H34.9458L34.7383 9.24023L34.5723 8.61768L34.8213 8.49316L34.9873 8.45166H35.3608L35.7344 8.57617L36.1079 8.8667L36.3984 9.24023L36.606 9.77979L36.6475 9.9873V10.4438L36.5229 10.8589L36.2739 11.2739L35.9419 11.5645L35.5269 11.7305H34.9043L34.6138 11.606L34.5308 11.772L34.2402 12.021L33.8252 12.187L33.4517 12.2285L33.0366 12.0625L32.9536 12.27L32.6216 12.4775L32.3311 12.5605L31.9575 12.519L31.5425 12.3115L31.2935 11.9795L31.1689 11.6475V11.1909L31.335 10.8589L31.5425 10.6099L31.916 10.4023L32.082 10.3608H32.5801L32.9536 10.5269L33.1611 10.7344L33.3271 10.9834L33.4517 11.2739L33.5347 11.3569H33.7837L33.9912 11.1909L34.0742 10.9419V10.4854L33.8667 10.0703L33.5347 9.82129L33.2856 9.73828H32.9536L32.4556 9.9043L31.9575 10.1118L31.7915 10.1533H31.3765L30.9614 9.9873L30.6709 9.65527L30.5879 9.44775L30.6294 9.24023L31.0859 9.11572H31.2935L31.418 9.32324L31.4595 9.36475H31.7915L32.0405 9.19873L32.3726 8.57617L32.5801 8.16113L32.8706 7.91211L33.3271 7.74609Z" fill="#F46927"/>
<path id="Vector_33" d="M39.5532 6.70898H39.8853L39.9268 6.75049L39.9683 7.08252V7.49756L39.5117 7.45605L39.2212 7.62207L39.0967 7.82959L39.8022 7.9541L40.2173 8.20312L40.4663 8.49365L40.6323 8.82568L40.7568 9.32373L40.8398 9.82178L41.0059 10.0708L41.2134 10.1953H41.5039L41.7529 9.98779L41.9189 9.61426V9.07471L41.7529 8.65967L41.5039 8.45215L41.3794 8.41064H40.9229L40.8813 8.32764V7.74658L41.0059 7.70508H41.5039L41.9189 7.87109L42.2095 8.12012L42.5 8.57666L42.6245 9.0332V9.73877L42.4585 10.1953L42.2095 10.5273L41.8774 10.8179L41.5869 10.9424L41.3794 10.9839H40.9644L40.5078 10.8179L40.3833 10.7764L40.0098 11.0254L39.5117 11.1499H39.2212L38.8892 11.0254L38.7231 10.9424L38.4741 11.1499L38.2251 11.2329H37.8101L37.395 11.0254L37.1045 10.6934L36.98 10.3198V9.94629L37.146 9.53125L37.5195 9.19922L37.8516 9.07471H38.4326L38.8477 9.28223L39.0967 9.57275L39.2212 9.94629L39.3042 10.2368L39.3872 10.3198H39.6362L39.8438 10.2368L39.9268 10.0293L40.0098 9.78027V9.40674L39.8853 9.0332L39.5947 8.74268L39.3042 8.61816H38.7646L37.9346 8.78418L37.5195 8.74268L37.1875 8.57666L36.897 8.24463L36.814 8.03711L36.7725 7.74658L37.063 7.66357H37.5195L37.644 7.9541L37.7271 7.99561H38.0591L38.3081 7.82959L38.6401 7.41455L38.9307 7.04102L39.1797 6.8335L39.5532 6.70898Z" fill="#F46927"/>
<path id="Vector_34" d="M51.1328 73.0312H51.6724L52.0044 73.2388L52.2534 73.5708L52.2949 73.9028L51.9629 74.0273L51.6724 74.0688L51.5479 73.7783L51.5063 73.7368H51.2158L51.0913 73.8613L51.1328 74.2349L51.2988 74.4839L51.4233 74.5669L51.9214 74.4839H52.627L53.042 74.6084L53.54 74.8989L53.8306 75.231L54.0381 75.646L54.1211 75.9365L54.1626 76.3516L54.0796 76.8911L53.9136 77.3062L53.623 77.6797L53.2495 77.9702L52.7515 78.1777L52.3364 78.2607H51.7969L51.2573 78.0947L50.8423 77.7212L50.6763 77.3892L50.5933 77.0571L50.6348 76.6421L50.6763 76.4346L50.4272 76.061L50.3857 75.646L50.5103 75.314L50.8008 74.9819L50.7178 74.8159L50.5103 74.4839L50.4272 74.1519V73.8198L50.5518 73.4878L50.8423 73.1558L51.1328 73.0312Z" fill="#F46927"/>
<path id="Vector_35" d="M21.9561 69.1719L22.1636 69.2549L25.0273 71.2056L25.6914 71.6621L25.9819 71.9526L26.1479 72.2847L26.1895 72.4507V72.9902L26.0234 73.5298L25.7744 73.9033L25.4424 74.1938L25.0688 74.3599H24.5293L24.1143 74.1108L23.9067 73.8203L23.8237 73.5298V73.1978L23.9482 72.8657L24.1558 72.6167L24.4048 72.4922L24.5708 72.4507H24.9443L25.3594 72.5752L25.4839 72.6582L25.4009 72.4507L24.9858 72.1187L24.2388 71.6206L24.1973 72.0771L23.9897 72.5752L23.5747 73.0317L23.0767 73.3223L22.7861 73.4053H22.3711L21.9146 73.2393L21.541 72.9487L21.3335 72.5337V72.2432L21.541 71.5376V71.2471L21.375 71.0811H21.1675L20.96 71.2886L20.8354 71.5376L20.7939 71.7451V72.3677L20.6279 72.3262L20.1299 71.9941L20.0469 71.9111V71.3301L20.2129 70.915L20.5449 70.5415L20.96 70.334H21.458L21.873 70.5L22.2051 70.7905L22.3296 71.0396L22.3711 71.3716L22.2051 72.1187V72.4092L22.4126 72.6167H22.7861L23.2012 72.4092L23.4502 71.9941L23.4917 71.8696V71.4546L23.2842 71.0396L22.9106 70.7075L22.1636 70.2095L21.5825 69.7944L21.6655 69.5869L21.9561 69.1719Z" fill="#F46927"/>
<path id="Vector_36" d="M50.0122 8.49316L50.3442 8.53467L52.6685 9.11572L53.0835 9.28174L53.374 9.53076L53.54 9.77979L53.623 10.0288V10.6929L53.4985 11.1079L53.2495 11.4399L52.9175 11.7305L52.5854 11.855H52.0874L51.7139 11.689L51.4648 11.3984L51.3403 10.9834L51.4233 10.5684L51.6309 10.2363L51.9214 10.0288L52.0459 9.9873H52.5854L52.8345 10.0703L52.627 9.86279L52.0044 9.65527L51.2988 9.48926L51.3403 10.0288L51.2573 10.6099L51.1328 10.9834L50.8423 11.3569L50.4272 11.6475L50.0952 11.772H49.5557L49.1821 11.6475L48.8916 11.3154L48.5181 11.4399H48.186L47.7295 11.3154L47.356 10.9834L47.2314 10.6929V10.1948L47.356 9.82129L47.5635 9.57227L47.8955 9.36475L48.0615 9.32324H48.6011L48.9331 9.44775L49.2651 9.73828L49.4727 10.1533L49.5142 10.8174L49.6387 10.9419L50.0122 10.9834L50.3442 10.7759L50.5518 10.3608V9.86279L50.4272 9.44775L50.2197 9.24023L49.8877 9.11572L49.9292 8.78369L50.0122 8.49316Z" fill="#F46927"/>
<path id="Vector_37" d="M27.3511 11.0254H27.8491L28.2642 11.1914L28.6377 11.5649L28.8452 11.897L28.9282 12.146V12.8101L28.7622 13.2251L28.4302 13.5571L28.1396 13.6816H27.6416L27.3096 13.5156L27.1021 13.2666L26.9775 12.9761V12.478L27.1436 12.146L27.5171 11.8555L27.7246 11.7725H27.3926L26.7285 12.063L26.189 12.3535L26.687 12.8516L27.019 13.4326L27.1021 13.8062L27.0605 14.3042L26.8945 14.7607L26.5625 15.1343L26.189 15.3418L25.8984 15.3833L25.6079 15.3418L25.4004 15.6738L25.0684 15.9644L24.6118 16.1304L24.2383 16.0889L23.9062 15.9229L23.6572 15.6323L23.4912 15.2588V14.8022L23.6572 14.4287L23.9062 14.1382L24.2798 13.9307L24.4458 13.8892H24.7778L25.1514 14.0137L25.4004 14.1797L25.6909 14.5117L25.8984 14.5532L26.1475 14.4287L26.272 14.2627L26.3135 14.0967V13.7646L26.1475 13.3911L26.0645 13.2251L25.8984 13.1421L25.5664 12.9346L25.2344 12.8931L24.9854 13.0176L24.8193 12.9761L24.6118 12.561L24.6533 12.395L25.9814 11.6895L26.77 11.2744L27.2266 11.0669L27.3511 11.0254Z" fill="#F46927"/>
<path id="Vector_38" d="M61.5093 69.2129H61.7168L62.0488 69.7109V69.7939L61.6753 69.9185L61.4678 70.2505L61.4263 70.4165H62.1318L62.6299 70.5825L63.0034 70.873L63.2524 71.2051L63.4185 71.5786L63.46 71.7861V72.1182L63.3354 72.6162L63.1279 73.0312L62.7959 73.4048L62.3809 73.6538L61.9243 73.8198H61.4263L60.9697 73.6538L60.5962 73.4048L60.2642 73.0312L60.0981 72.6992L60.0566 72.5332V71.9521L60.0981 71.8276L59.7661 71.7446L59.4756 71.5371L59.3926 71.4126V71.2881L59.9736 70.9146L60.0981 70.9976H60.4302L60.6792 70.8315L60.8037 70.541L60.8867 69.8354L61.0942 69.5034L61.3848 69.2544L61.5093 69.2129Z" fill="#F46927"/>
<path id="Vector_39" d="M27.7661 72.4092L28.0151 72.4922L28.4302 72.6997L28.3887 72.9902L28.5132 73.1978L28.6792 73.3223H29.0942L29.8828 72.9487L30.2979 72.9072L30.6714 73.0317L30.8374 73.1978L30.7959 73.4053L30.5884 73.8203L30.2979 73.6543H30.0073L29.7583 73.7788H29.6753L30.0488 74.3184L30.1318 74.5674L30.2148 75.1069V75.6465L30.0073 76.0615L29.7168 76.3521L29.3848 76.5181L29.0942 76.6011L28.4717 76.6426L27.8076 76.5181L27.2681 76.3105L26.853 76.02L26.6455 75.854L26.3135 75.3975L26.1475 74.9409V74.3599L26.3135 73.9863L26.521 73.7373L26.853 73.5713H27.3511L27.7246 73.7373L27.9321 73.9033L28.0566 74.1108V74.5674L27.8906 74.8579L27.6831 75.0239L27.4756 75.1069H27.1851L26.936 74.9824V75.1069L27.2266 75.4805L27.5586 75.7295L28.0151 75.937L28.1812 75.9785H28.8037L29.0942 75.8955L28.6377 75.771L28.3472 75.522L28.2227 75.2314V74.9409L28.3887 74.6089L28.5962 74.4429L28.8037 74.3599H29.1772L28.7622 74.1108L28.0981 73.7788L27.8076 73.5298L27.6416 73.2393L27.6001 72.8657L27.7246 72.4507L27.7661 72.4092Z" fill="#F46927"/>
<path id="Vector_40" d="M7.59521 27.377H7.96875L8.09326 27.5015L7.84424 27.958L7.55371 27.9995L7.4707 28.207L7.59521 28.3315H7.88574L8.13477 27.9995L8.42529 27.7505L8.71582 27.626H9.25537L9.67041 27.8335L9.87793 28.0825L9.96094 28.2485V28.373L10.2515 28.1655L10.542 28.0825L10.874 28.124L10.9985 28.207L10.9155 28.4561L10.708 28.8296L10.293 29.0371L10.127 29.2446L9.96094 29.7012L10.0024 29.9917L10.1685 30.1162L10.4175 30.0747L10.625 29.7427L10.8325 28.9956L11.0815 28.6221L11.2891 28.4561L11.5381 28.373L11.9116 28.4146L12.2437 28.6221L12.4927 28.9541L12.6587 29.4937V30.0747L12.4927 30.5728L12.1191 31.1123L11.7871 31.3613L11.3721 31.5273H10.874L10.708 31.4443L11.04 30.7803L11.4136 30.6973L11.7041 30.4897L11.9116 30.1577L11.9946 29.9087V29.4937L11.9116 29.2861L11.6626 29.2031L11.4551 29.3276L11.1646 30.1577L10.9985 30.4897L10.6665 30.7803L10.459 30.9048L10.293 30.9463H10.0024L9.67041 30.7803L9.50439 30.5728L9.37988 30.2822L9.33838 30.0747L8.96484 30.1577L8.92334 29.9917V29.6182L9.25537 29.4106L9.46289 29.0786V28.6221L9.33838 28.3315L9.08936 28.207L8.84033 28.2485L9.04785 28.4976L9.08936 28.5806V29.0786L8.92334 29.4106L8.67432 29.6182L8.59131 29.6597H8.21777L7.92725 29.4937L7.76123 29.2031V28.9541L7.51221 28.9956L7.18018 28.8296L7.01416 28.5806L6.97266 28.4561V28.041L7.13867 27.6675L7.3877 27.46L7.59521 27.377Z" fill="#F46927"/>
<path id="Vector_41" d="M65.3276 15.4238L65.5352 15.5068L65.8672 15.8389L65.8257 16.0049V16.3369L66.0332 16.5029L66.1162 16.5444H66.6558L67.3613 16.4614L67.7349 16.5444L68.1084 16.7935L68.1914 16.918L68.1499 17.084L67.7349 17.5405L67.6104 17.416L67.4858 17.2085L67.2783 17.1255H66.8218L67.1538 17.5405L67.3198 17.9141L67.3613 18.1216V18.4121L67.1953 18.9517L66.8633 19.4497L66.4482 19.8647L66.1162 20.0308L65.9502 20.0723H65.4106L64.9956 19.9062L64.6221 19.6157L64.4561 19.3667L64.4146 18.9932L64.2485 19.0347L63.875 18.9102L63.5845 18.6611L63.4185 18.3291L63.377 17.8726L63.5015 17.499L63.7505 17.167L64.0825 16.9595L64.2485 16.918H64.6636L65.0786 17.084L65.4106 17.3745L65.5767 17.7065L65.6182 17.8311V18.2876L65.4106 18.7026L65.2861 18.8687V19.2007L65.5352 19.2837L65.9087 19.2422L66.2407 19.0347L66.4897 18.6611L66.5312 18.4951V18.1216L66.3652 17.7065L65.9917 17.3745L65.5352 17.084L65.2446 16.835L65.0371 16.4199L64.9956 16.0049L65.1616 15.5898L65.3276 15.4238Z" fill="#F46927"/>
<path id="Vector_42" d="M72.1753 57.9658H72.7148L73.2129 58.0903L73.7524 58.3809L74.1675 58.7544L74.458 59.2109L74.541 59.5015V59.9165L74.375 60.373L74.043 60.6636H73.877L73.9185 60.7881V61.0786L73.7524 61.5767L73.4619 61.9502L73.1299 62.1162H72.5488L72.1338 61.9087L71.8848 61.6182L71.7603 61.2861V60.7881L71.9263 60.373L72.1338 60.124L72.5488 59.9165L73.0054 59.875L73.4204 59.9995L73.5864 59.958L73.7109 59.709L73.6694 59.46L73.4619 59.1279L73.1299 58.8374L72.7563 58.6714L72.2998 58.6299L71.8018 58.7544L71.4697 58.9619L71.3452 59.1694L71.5527 59.2524L71.7188 59.46L71.8018 59.6675V60.041L71.6357 60.4561L71.3452 60.7881L71.0547 60.9126L70.7227 60.8711L70.4736 60.7051L70.2661 60.4561L70.2246 60.3315V59.9165L70.3906 59.46L70.7227 58.8789L71.0962 58.4224L71.4697 58.1733L71.9678 58.0073L72.1753 57.9658Z" fill="#F46927"/>
<path id="Vector_43" d="M12.3682 26.0078H12.8662L13.2812 26.2153L13.6133 26.5889L14.2358 26.5474L14.6094 26.6719L14.9414 26.9624L15.0659 27.2529L15.1074 27.6265L15.0244 28L14.7339 28.415L14.4849 28.5396H14.1528L13.7378 28.3735L13.5303 28.2075L13.1982 28.8716L13.3228 28.8301H13.6133L14.0283 28.9961L14.4434 29.2451L14.7754 29.3696L15.0244 29.4111L15.0659 29.9092L14.9829 29.9507H14.6924L14.2358 29.7432V30.1582L14.1113 30.4487L13.7793 30.7393L13.6133 30.7808L13.6548 30.8638V31.4448L13.4473 31.8599L13.1982 32.0674L12.9492 32.1919L12.7417 32.2334H12.3682L12.0361 32.1089L11.9116 31.9844L11.9946 31.7354L12.1606 31.4448L12.3267 31.4863L12.4097 31.5278H12.7417L12.9492 31.3618L13.0322 31.1543L12.9907 30.8638L12.7002 30.6978L12.6172 30.6562L12.7417 30.2827L12.8662 30.0752L13.0322 30.1167L13.1567 30.1582H13.5303L13.6133 29.9092L13.5718 29.6187L13.3643 29.4526H13.0322L12.8662 29.0791L13.0737 28.8716L12.8247 28.7886L12.5342 28.6226L12.9077 27.834L13.1567 27.3359L13.1152 27.0454L12.9077 26.7964L12.7417 26.7134H12.4512L12.3267 26.9209V27.1284L12.5757 27.1699L12.5342 27.3774L12.2852 27.8755L12.0776 27.7925L11.7456 27.502L11.6211 27.2114V26.8379L11.7871 26.4229L11.9946 26.1738L12.2021 26.0493L12.3682 26.0078Z" fill="#F46927"/>
<path id="Vector_44" d="M21.665 14.5938H21.9971L22.5366 14.7598L22.8687 15.0088L23.1592 15.3408L23.3252 15.6729L23.4082 16.0049V16.3784L23.2837 16.8765L23.0762 17.25L22.7441 17.6235L22.2876 17.9141L21.8311 18.0386H21.416L21.001 17.9141L20.6274 17.665L20.3369 17.3745L20.0879 16.9595L20.0049 16.6689V16.1709L20.1709 15.6729L20.4199 15.2993L20.6274 15.0503L21.084 14.7598L21.416 14.6353L21.665 14.5938Z" fill="#F46927"/>
<path id="Vector_45" d="M70.6392 22.4805L71.0957 22.522L71.5107 22.688L71.8843 22.937L72.1748 23.2275L72.4238 23.6426L72.5483 24.1406V24.5142L72.3823 25.0537L72.0503 25.4688L71.6353 25.7593L71.3032 25.8838H70.5977L70.1411 25.7178L69.7676 25.4688L69.4771 25.1782L69.1865 24.6387L69.1035 24.2651L69.145 23.7256L69.394 23.2275L69.6016 22.9785L70.0166 22.688L70.3901 22.522L70.6392 22.4805Z" fill="#F46927"/>
<path id="Vector_46" d="M76.4502 42.1943H77.0312L77.4463 42.3188L77.9028 42.6509L78.1519 42.9829L78.3179 43.3149L78.4009 43.6055V44.394L78.2349 44.8506L77.9028 45.2656L77.4878 45.5146L77.2388 45.5977L76.9482 45.6392H76.5747L76.0767 45.5146L75.6201 45.1826L75.3711 44.8091L75.2051 44.4355L75.1221 44.062V43.647L75.2466 43.1904L75.4126 42.8584L75.7031 42.5264L76.0352 42.3188L76.4502 42.1943Z" fill="#F46927"/>
<path id="Vector_47" d="M12.3687 58.8379H12.7422L13.2817 59.0039L13.7383 59.3359L14.0288 59.668L14.2778 60.166L14.3193 60.3735V60.9961L14.1533 61.4526L13.7798 61.8677L13.4062 62.1167L13.0742 62.2412L12.6177 62.2827L12.1196 62.1582L11.7876 61.9922L11.3726 61.6187L11.1235 61.2451L10.9575 60.8301L10.916 60.6226V60.2905L11.0405 59.834L11.2896 59.4604L11.6631 59.1284L12.0781 58.9209L12.3687 58.8379Z" fill="#F46927"/>
<path id="Vector_48" d="M44.5757 76.3105H45.2812L45.7378 76.4766L46.1113 76.7256L46.4019 77.0991L46.5264 77.3896L46.5679 77.5972V78.2612L46.4019 78.6763L46.1528 79.0083L45.8208 79.2988L45.4058 79.5063L45.0737 79.5894H44.4512L44.0361 79.4648L43.6626 79.2158L43.3721 78.8838L43.2061 78.4688L43.123 78.0122L43.1646 77.5142L43.4136 77.0161L43.7871 76.6426L44.2852 76.3936L44.5757 76.3105Z" fill="#F46927"/>
<path id="Vector_49" d="M31.1694 74.0693L31.7505 74.2354L31.8335 74.5259L31.958 74.7334L32.0825 74.8164H32.4561L32.7466 74.6504L33.3276 74.2769H33.9502L34.3652 74.4014L34.4067 74.5674L34.2407 75.1069L34.1162 75.1484L33.8672 75.0239H33.4106L33.2031 75.1484L33.6182 75.2729L33.9502 75.522L34.1992 75.8125L34.3652 76.2275L34.4067 76.4351V76.7671L34.2822 77.2651L34.0332 77.6802L33.7012 78.0122L33.2031 78.2612L32.9956 78.3027H32.5806L32.207 78.1782L31.875 77.9292L31.709 77.6387L31.6675 77.2236L31.792 76.8086L31.875 76.4766L31.792 76.3521H31.46L31.2524 76.5596L31.1694 76.8086V77.0991L31.3354 77.5972L31.46 77.8047L31.4185 77.8877L30.6299 77.6387L30.4639 77.3896L30.3809 77.0576V76.7256L30.5469 76.269L30.9204 75.854L31.2939 75.688H31.8335L32.2485 75.854L32.4976 76.1445L32.5806 76.3936L32.5391 76.9331L32.4976 77.0991V77.3896L32.6636 77.5142H32.9956L33.3691 77.2651L33.5352 77.0161L33.6182 76.6426L33.5767 76.269L33.4106 76.02L33.0786 75.8125L31.9165 75.4805L31.5015 75.2729L31.2109 74.9824L31.0864 74.7334V74.1938L31.1694 74.0693Z" fill="#F46927"/>
<path id="Vector_50" d="M12.8667 21.5664L13.0327 21.6079L13.4893 21.9399L13.4062 22.106L13.2402 22.3135L13.1572 22.5625V22.936H13.2402L13.3232 22.7285L13.5308 22.4795L13.9458 22.2305L14.3193 22.1475H14.6929L15.1079 22.272L15.5229 22.521L15.8135 22.8115L16.0625 23.2681L16.1455 23.6001V24.0981L15.9795 24.5547L15.689 24.8867L15.3569 25.0527L14.9834 25.0942L14.6099 24.9697L14.1118 24.5962L13.9043 24.6377L13.8213 24.8037L13.8628 25.0942L14.0288 25.3018L14.3193 25.4263H15.0249L15.2324 25.3848L15.1909 25.5508L14.7759 26.1318L14.6929 26.1733H14.0703L13.6553 25.9658L13.3232 25.6338L13.1572 25.2603V24.7207L13.4062 24.2227L13.6968 23.9736L13.9043 23.8906H14.1948L14.6099 24.0566L14.9834 24.2642L15.2324 24.2227L15.3569 24.0566V23.6416L15.1909 23.3096L14.9834 23.1021L14.6514 22.936H14.2363L13.9873 23.0605L13.7798 23.2681L13.4893 23.6831L13.1987 24.1396L12.8252 24.5547L12.4517 24.7622H11.9536L11.5801 24.5962L11.6216 24.4302L11.9121 24.0151L11.9951 23.9736L12.0781 24.0151L12.4517 23.9736L12.6177 23.7661L12.6592 23.4756L12.4517 22.77V22.3135L12.7422 21.7324L12.8667 21.5664Z" fill="#F46927"/>
<path id="Vector_51" d="M8.92334 46.5527H9.21387L9.5874 46.6772L9.79492 46.8433L9.96094 47.1753L10.0439 47.5073V47.8394L9.91943 48.1299L9.71191 48.3789L9.46289 48.5034L9.29688 48.5449H8.96484L8.63281 48.3789L8.34229 47.9639L8.13477 47.6318L8.01025 47.5488H7.67822L7.55371 47.7148V48.0054L7.67822 48.2129L7.96875 48.2544H8.17627L8.25928 48.96L7.88574 49.043L7.80273 49.292V49.5825L7.96875 49.79L8.42529 49.9561H8.79883L9.21387 49.8315L9.50439 49.5825L9.62891 49.375L9.71191 48.7109L9.87793 48.3789L10.0854 48.2129L10.4175 48.0884L10.5835 48.1299L10.6665 48.7109L10.376 48.8354L10.3345 48.877V49.0845L10.542 49.2505L10.9985 49.541L11.2476 49.9146V50.3296L11.1646 50.4126L10.625 50.4541V49.9976L10.2515 49.707L10.0854 49.9146L9.79492 50.2466L9.37988 50.4956L9.00635 50.6201L8.75732 50.6616H8.34229L7.96875 50.5786L7.55371 50.3296L7.22168 49.9561L7.05566 49.5825L7.01416 49.126L7.22168 48.7109L6.97266 48.4204L6.80664 48.0469V47.4658L6.97266 47.1338L7.26318 46.8848L7.59521 46.7603H8.01025L8.42529 46.9678L8.67432 47.2583L8.96484 47.7979L9.00635 47.8394L9.29688 47.7979L9.33838 47.7148V47.4658L9.21387 47.2583L8.92334 47.2168L8.84033 46.9678L8.79883 46.5942L8.92334 46.5527Z" fill="#F46927"/>
<path id="Vector_52" d="M73.7935 53.9395H74.084L74.416 54.064L74.6235 54.23L74.7896 54.562L74.8311 54.728V55.2261L74.665 55.6411L74.416 55.9316L74.4575 56.1392L74.499 56.8447L74.6235 57.1768L74.8726 57.2183L75.0801 57.0938L75.1216 57.0107V56.6787L74.9141 56.4712L74.8311 56.4297L74.9556 56.0146L75.0801 55.7656L75.4536 55.8486L75.6196 55.7656L75.6611 55.6826V55.4336L75.4951 55.2676L75.2046 55.2261L75.2461 54.9771L75.4536 54.479L75.5366 54.4375L75.9517 54.6035L76.2007 54.811L76.3667 55.1431L76.4082 55.3091V55.5996L76.2422 56.1392L75.9517 56.4712L75.7026 56.5542L75.8271 56.8862V57.2183L75.7026 57.5503L75.4121 57.8823L75.0801 58.0483L74.9556 58.0898H74.582L74.167 57.9238L73.918 57.6333L73.8765 57.5088L73.835 56.4712L73.7104 56.3467L73.4199 56.3052L73.2954 56.5127L73.3369 56.7617L73.5859 56.9277L73.5444 57.1768L73.3369 57.7163L73.1294 57.6333L72.8389 57.3843L72.6313 56.9277L72.5898 56.7617V56.3467L72.7559 55.9316L72.9219 55.7241L73.2539 55.5581L73.918 55.4336L74.084 55.3506L74.167 55.1846L74.1255 54.8525L74.0425 54.811H73.7935L73.6689 55.0186L73.6274 55.3091L73.3369 55.2676L72.9634 55.1016L73.0049 54.8525L73.2954 54.2715L73.5859 54.0225L73.7935 53.9395Z" fill="#F46927"/>
<path id="Vector_53" d="M8.38428 42.1523L8.79932 42.1938L9.25586 42.3599L9.62939 42.6089L9.91992 42.9409L10.0859 43.3975V43.6465H9.42188L9.29736 43.3145L9.00684 43.0654L8.6333 42.9409H8.25977L7.72021 43.1069L7.5127 43.2729L7.34668 43.6465L7.30518 43.854V44.3936L7.42969 44.8086L7.67871 45.1821L8.01074 45.3896L8.34277 45.4727H8.71631L9.13135 45.3066L9.33887 45.0576L9.38037 44.9746L9.33887 44.6011L9.21436 44.5181L8.92383 44.5596L8.88232 44.6011L8.84082 44.8916L8.17676 44.9331L8.13525 44.3936V43.0239H8.71631L8.75781 43.8125L8.84082 43.771H9.25586L9.62939 43.937L9.83691 44.103L10.0029 44.4351L10.0444 44.5596V45.2236L9.87842 45.5557L9.54639 45.8877L9.04834 46.1367L8.6333 46.2197L8.09375 46.1782L7.67871 46.0122L7.22217 45.6802L6.93164 45.3481L6.68262 44.8501L6.59961 44.5181V43.688L6.76562 43.1484L7.01465 42.7749L7.30518 42.4844L7.72021 42.2769L8.38428 42.1523Z" fill="#F46927"/>
<path id="Vector_54" d="M56.6528 10.0703L57.3169 10.4023L57.2754 10.7759L57.3999 10.9004H57.7734L58.3545 10.6514L58.5205 10.6099H59.0601L59.4751 10.8174L59.5581 10.9834L59.2676 11.5229L58.9355 11.2739H58.479L58.313 11.3569L58.6865 11.7305L58.811 12.021V12.353L58.728 12.5605L58.479 12.4775L58.064 12.27L57.9395 11.938L57.6904 11.7305L57.3169 11.5645H56.9849L56.7773 11.772L56.8188 11.9795L57.1094 12.187L57.8979 12.3945L58.313 12.6436L58.5205 12.9756L58.562 13.3076L58.4375 13.6396L58.147 13.9717L57.6489 14.2207L57.4414 14.2622H56.9434L56.4038 14.0962L55.9888 13.8472L55.7397 13.6396L55.4907 13.2246L55.3662 12.8511L55.4077 12.436L55.4492 12.353L55.6982 12.3945L56.1548 12.6436L56.2378 13.0171L56.4453 13.3076L56.9434 13.5566L57.3169 13.5981L57.6489 13.4736L57.6904 13.3906V13.0586L57.3169 12.9341L56.6113 12.6851L56.3623 12.519L56.0718 12.187L55.9473 11.855L55.9888 11.4814L56.1548 11.2324L56.4453 11.0249L56.6528 10.9834L56.5283 10.6514V10.2778L56.6528 10.0703Z" fill="#F46927"/>
<path id="Vector_55" d="M49.1821 74.6914H49.5557L49.6387 74.8159L49.7217 75.397L49.3066 75.3555L49.0576 75.48L48.8086 75.812H49.1406L49.5557 75.978L49.8047 76.2686L49.8462 76.5591L49.4312 76.6421H49.1406L48.8086 76.4761H48.3521L47.9785 76.6006L47.854 76.7666V77.0571L47.9785 77.1401H48.4351L49.0161 76.8911L49.1821 76.8496H49.6802L49.9707 77.0156L50.1782 77.2646L50.2612 77.6797L50.1782 78.0947L50.0122 78.4268L49.6387 78.8003L49.1406 79.0493L48.8086 79.1323H48.103L47.6465 78.9663L47.2729 78.6758L47.1069 78.3853V78.2192L47.605 78.0947H47.854L48.02 78.3022L48.3521 78.4268H48.7671L49.2236 78.2607L49.4312 78.0947L49.5142 77.8042L49.3896 77.5967H49.0991L48.269 77.8457H47.771L47.356 77.6797L47.1484 77.5137L47.0239 77.2646L46.9824 77.0156L47.1069 76.6421L47.2729 76.3931L47.0654 76.3101L46.7749 75.978L46.7334 75.6875L47.439 75.563L47.5635 75.812V75.895H47.9785L48.2275 75.563L48.4766 75.1895L48.6841 74.9404L49.0576 74.7329L49.1821 74.6914Z" fill="#F46927"/>
<path id="Vector_56" d="M73.0054 25.4688L73.4204 25.5518L73.7524 25.8423L73.96 26.1743L74.043 26.4233V26.7554L73.877 27.0874L73.5864 27.3364L73.2544 27.4609L72.9224 27.4194L72.6733 27.2534L72.1753 26.8799H71.8018L71.6772 27.0874L71.7188 27.3364L71.8848 27.5439H72.1753L72.4243 27.4609L72.7148 28.0005L72.6733 28.125L72.4658 28.291L72.4243 28.5815L72.5488 28.8721L72.7563 28.9551H73.2959L73.6694 28.7891L73.877 28.623L74.043 28.291V27.876L73.877 27.5854L74.4165 27.2949H74.541L74.7485 27.6685L74.79 27.8345V28.3325L74.624 28.7476L74.375 29.0796L74.043 29.3701L73.5449 29.6191L73.3789 29.6606H72.7148L72.2998 29.4946L71.9678 29.2456L71.6772 28.8306L71.6357 28.7061V28.4155L71.6772 28.208L71.3037 27.959L71.0547 27.6685L70.8887 27.2949V26.8799L71.0962 26.4648L71.3452 26.2573L71.7603 26.0913L72.1753 26.1328L72.5073 26.2988L72.7563 26.5063L72.9224 26.7139L73.1714 26.7554L73.3374 26.6309L73.2959 26.3818L73.0884 26.1743L72.7563 26.2158L72.5073 25.7593L72.5488 25.5933L72.7563 25.5103L73.0054 25.4688Z" fill="#F46927"/>
<path id="Vector_57" d="M9.29639 31.5273H9.96045L10.3755 31.6519L10.7905 31.9009L11.1226 32.2744L11.3301 32.814L11.3716 33.1045V33.478L11.2471 34.0591L10.9565 34.6401L10.666 34.9722L10.251 35.2212L9.87744 35.3457H9.29639L8.83984 35.2212L8.3418 34.9722L8.05127 34.6816L7.88525 34.3496L7.84375 33.9761L7.96826 33.478L8.21729 33.1875L8.54932 33.063H8.83984L9.21338 33.1875L9.4624 33.395L9.62842 33.7271V34.1836L9.50391 34.4326L9.33789 34.6401L9.83594 34.5986L10.085 34.4741L10.3755 34.1421L10.583 33.644L10.6245 33.4365V32.98L10.5 32.6064L10.168 32.3159L9.75293 32.1914H9.4209L9.17188 32.3159L9.00586 32.5234L8.88135 32.731L8.3418 32.5649L8.30029 32.3989L8.46631 32.0669L8.75684 31.7764L9.13037 31.5688L9.29639 31.5273Z" fill="#F46927"/>
<path id="Vector_58" d="M68.1079 19.0762H68.4814L68.8965 19.2422L69.27 19.6157L69.353 19.8232V20.1968L69.1455 20.6118L68.8135 20.8608L68.689 20.9023H68.1909L67.9419 20.7778L67.7344 20.5703L67.5684 20.2383L67.4023 20.4458L67.3193 20.6948L67.3608 21.1514L67.5269 21.4834L67.9004 21.8984L68.1909 22.106L68.3984 22.189H68.8965L69.2285 22.0229L69.5605 21.6494L69.6021 21.5664V21.1514L69.436 20.8608L69.519 20.6948L69.8511 20.4043L70.0171 20.4873L70.1831 20.6948L70.2661 20.9438V21.6909L70.0171 22.189L69.6021 22.604L69.27 22.8115L69.021 22.8945H68.3154L67.7344 22.687L67.2363 22.3135L66.9043 21.8984L66.6553 21.4004L66.5723 21.0684V20.6948L66.6553 20.3213L66.9043 19.8647L67.3608 19.4082L67.9419 19.1177L68.1079 19.0762Z" fill="#F46927"/>
<path id="Vector_59" d="M58.2715 72.4092H58.7695L59.2261 72.5752L59.5996 72.8242L59.8901 73.1562L60.0977 73.6128L60.1807 73.9033V74.4844L60.0146 74.9409L59.7241 75.2729L59.3921 75.4805L59.1016 75.5635L58.728 75.522L58.4375 75.937L58.064 76.186L57.8149 76.269H57.3999L56.9849 76.0615L56.7358 75.771L56.6113 75.522V74.8994L56.8188 74.4844L57.1924 74.1938L57.4829 74.0693H57.981L58.479 74.3184L58.7695 74.6919L58.9355 74.7749L59.1846 74.7334L59.3506 74.5674L59.4336 74.3184L59.3921 73.9033L59.1846 73.4883L58.894 73.2393L58.7695 73.1978H58.396L58.1885 73.2808L58.0225 73.2393L57.7319 72.6167L58.1055 72.4507L58.2715 72.4092Z" fill="#F46927"/>
<path id="Vector_60" d="M18.8423 17.002L19.2988 17.0435L19.6724 17.2095L20.0044 17.4585L20.3364 17.832L20.5439 18.2886L20.627 18.6621V18.9941L20.4609 19.4507L20.2119 19.7827L19.8384 20.0317L19.7139 20.0732H19.2988L18.4688 19.6582H18.2197L18.0537 19.8242L18.0952 20.0732L18.2612 20.2808L18.6763 20.4883L19.2158 20.6128L19.1328 20.7788L18.6348 21.2354L18.3027 21.1938L17.8877 21.0278L17.5972 20.7788L17.3481 20.3638L17.3066 20.2393V19.6997L17.5142 19.2847L17.8047 18.9941L18.1367 18.8281H18.5103L19.3818 19.2017H19.6309L19.7969 19.0771L19.8384 18.9526V18.4961L19.6724 18.1641L19.3818 17.915L19.1743 17.832H18.7178L18.5103 17.9565L18.3857 18.0811H18.3027L18.0122 17.749L17.8462 17.583L17.9292 17.417L18.3027 17.168L18.5933 17.0435L18.8423 17.002Z" fill="#F46927"/>
<path id="Vector_61" d="M17.5981 67.2627H18.0547L18.5527 67.5117L18.8433 67.8438L18.9678 68.1758L18.9263 68.5493L18.6357 69.2964V69.5454L18.8433 69.7529H19.2998L19.7148 69.5454L19.9639 69.1719L20.0054 68.7153L19.8809 68.4248L19.7148 68.3003L19.7563 68.1343L20.2129 67.6777L20.4204 67.8438L20.7109 68.3003L20.7939 68.5908V69.0889L20.6279 69.5454L20.3789 69.8774L20.0884 70.168L19.5073 70.4585L19.0923 70.5415L18.6357 70.5L18.3037 70.334L17.9717 70.0435L17.7642 69.6699V69.2134L18.1377 68.4248L18.0962 68.0928L17.8472 68.0098L17.5566 68.1758L17.3906 68.4248L17.2661 69.0059L17.2246 69.2134L17.0586 69.1304L16.7681 68.8398L16.5605 68.6738L16.6021 68.2588L16.7681 67.8853L17.0586 67.5532L17.4321 67.3042L17.5981 67.2627Z" fill="#F46927"/>
<path id="Vector_62" d="M16.8506 21.3184H17.6392L18.2202 21.5259L18.7183 21.8164L19.0503 22.1484L19.2578 22.5635L19.3408 22.8955V23.3521L19.1748 23.8086L18.8843 24.1406L18.4692 24.3896L18.0542 24.5142L17.6392 24.4727L17.3071 24.3066L17.0166 23.9746L16.9336 23.7256V23.269L17.0996 22.937L17.3486 22.7295L17.5977 22.6465L17.8882 22.688L18.1372 22.854L18.3447 23.103L18.4277 23.6011L18.5938 23.3936L18.6353 23.3105V22.8955L18.3862 22.4805L18.0127 22.1899L17.5562 21.9824H17.0166L16.7676 22.1069L16.6431 22.356L16.4355 22.2314L16.1035 21.9409L16.1865 21.7334L16.5186 21.4429L16.8506 21.3184Z" fill="#F46927"/>
<path id="Vector_63" d="M56.4038 70.583L56.8188 70.6245L57.1924 70.8735L57.4829 71.2886L57.4414 71.4131L56.8604 71.7036H56.7358L56.5698 71.3716L56.2793 71.3301L56.1133 71.4961L56.1548 71.7451L56.2793 71.9111L56.8188 71.9526L57.1924 72.1187L57.4829 72.4092L57.6489 72.7412L57.6904 72.9072V73.2808L57.5659 73.6543H57.1509L57.0264 73.6128L57.0679 73.1978V72.8242L56.9434 72.6997V73.0317L56.7773 73.3638L56.4453 73.6543L56.2378 73.7373H55.9473L55.6982 73.6128L55.4907 73.3638L55.4492 73.2808V72.8657L55.5737 72.4507L55.3247 72.1187L55.2832 72.0356V71.6206L55.4492 71.2471L55.6982 70.915L56.1133 70.666L56.4038 70.583Z" fill="#F46927"/>
<path id="Vector_64" d="M15.1904 63.4023H15.481L15.6885 63.6099L15.813 63.9834L16.4771 64.1079L16.6431 64.3154V64.606L16.4771 64.8135L16.2695 64.9795V65.353L16.311 65.6436L16.1865 65.8511L16.062 65.9341H15.7715L15.3979 65.7266L15.1489 65.7681L14.8999 65.9341H14.6094L14.4019 65.7681L14.3604 65.6851L14.4019 65.021L14.0283 64.6475V64.2739L14.2773 64.0664L14.6924 64.0249L14.8584 63.9004L15.0244 63.5269L15.1904 63.4023Z" fill="#F46927"/>
<path id="Vector_65" d="M8.17578 37.5459H8.46631L8.67383 37.7119L8.83984 38.0854L8.96436 38.1685L9.37939 38.21L9.62842 38.4175L9.66992 38.6665L9.54541 38.874L9.29639 39.0815L9.25488 39.1646V39.4551L9.29639 39.8286L9.08887 40.0776H8.75684L8.50781 39.9116H8.17578L7.92676 40.0776H7.59473L7.38721 39.8701L7.3457 39.6626L7.42871 39.2476L7.3042 39.04L7.05518 38.8325L7.01367 38.7495V38.459L7.17969 38.2515L7.71924 38.1685L7.88525 38.0024L8.05127 37.6289L8.17578 37.5459Z" fill="#F46927"/>
<path id="Vector_66" d="M69.7266 63.1123L69.9756 63.1538L70.1831 63.3613L70.3076 63.7349L70.8887 63.8179L71.0962 63.9839L71.1377 64.2744L71.0132 64.4819L70.7642 64.6895L70.7227 64.7725L70.7642 65.4365L70.5981 65.644L70.2661 65.6855L69.9341 65.478H69.6851L69.353 65.6855H69.104L68.855 65.478V65.1045L68.8965 64.814L68.772 64.6064L68.5229 64.3989L68.4814 64.3159V64.0669L68.689 63.8179L69.2285 63.7349L69.353 63.5688L69.519 63.2368L69.7266 63.1123Z" fill="#F46927"/>
<path id="Vector_67" d="M76.4507 37.4219L76.7412 37.5049L76.8657 37.6709L76.9902 38.0444L77.5713 38.1274L77.7788 38.2935L77.8203 38.3765V38.6255L77.5713 38.916L77.4468 38.999L77.4053 39.3311L77.4468 39.4556V39.7461L77.2808 39.9536L77.1978 39.9951H76.9487L76.6167 39.7876L76.2847 39.8291L76.0356 39.9951H75.7866L75.5791 39.8291L75.5376 39.7461V39.4556L75.5791 39.082L75.3716 38.8745L75.1641 38.6255L75.2056 38.2935L75.4131 38.1274L75.8281 38.0859L75.9941 38.0029L76.1602 37.5879L76.3262 37.4634L76.4507 37.4219Z" fill="#F46927"/>
<path id="Vector_68" d="M44.7407 8.36914H45.1558L45.5708 8.49365L45.9858 8.86719L46.1104 9.19922V9.69727L45.9443 10.1123L45.7783 10.3198L45.6953 10.3613H45.4048L45.2388 10.1538L45.1973 9.86328L45.2388 9.61426L44.6162 9.57275L44.5332 9.53125L44.4502 9.98779L44.3672 10.1538L44.2427 10.2368H43.9937L43.7861 10.0708L43.7031 9.86328V9.40674L43.8691 8.9917L44.1597 8.65967L44.4917 8.45215L44.7407 8.36914Z" fill="#FEFEFE"/>
<path id="Vector_69" d="M75.7036 51.0762L76.1187 51.1177L76.3677 51.2422L76.6582 51.5742L76.7827 51.9478V52.2383L76.6582 52.6533L76.3677 52.9854L75.9941 53.1099H75.7036L75.2886 52.9854L74.998 52.6948L74.832 52.2383L74.8735 51.8232L75.0811 51.4082L75.4131 51.1592L75.7036 51.0762Z" fill="#FEFEFE"/>
<path id="Vector_70" d="M9.29736 51.9473L9.7124 51.9888L10.0444 52.1963L10.252 52.4453L10.3765 52.7358V53.2339L10.2104 53.6074L9.91992 53.8564L9.54639 53.981L9.17285 53.9395L8.79932 53.7319L8.55029 53.3999L8.42578 53.0679V52.6943L8.55029 52.4038L8.71631 52.1963L9.13135 51.9888L9.29736 51.9473Z" fill="#FEFEFE"/>
<path id="Vector_71" d="M48.6006 6.95703H49.0986L49.4722 7.08154L49.8042 7.37207L49.9702 7.7041V8.36816L49.7627 8.7832L49.4307 9.07373L49.1816 9.15674L48.8496 8.7832L49.0571 8.57568L49.3477 8.32666L49.4307 8.07764L49.3892 8.03613L49.1816 8.28516L48.7666 8.45117H48.4761L48.1025 8.28516L47.895 8.03613L47.8535 7.95312V7.62109L48.0195 7.28906L48.3516 7.04004L48.6006 6.95703Z" fill="#F46927"/>
<path id="Vector_72" d="M16.5186 17.168H16.9336L17.3071 17.334L17.6392 17.6245L17.8467 18.0396L17.8882 18.4961L17.8467 18.6206L17.4731 18.7036H17.3071L17.2241 18.0811L17.0996 17.8735H17.0166L17.0581 17.9565V18.4546L16.8921 18.7866L16.6016 19.0356L16.394 19.1187L16.0205 19.0771L15.73 18.8281L15.6055 18.4131L15.647 17.998L15.813 17.666L16.145 17.334L16.5186 17.168Z" fill="#F46927"/>
<path id="Vector_73" d="M61.6743 71.123H61.9648L62.2969 71.2476L62.5044 71.4136L62.6704 71.6626L62.7119 71.7871V72.2852L62.5044 72.7002L62.1309 72.9907L61.8818 73.0737H61.5498L61.2178 72.9077L60.8857 72.5342L60.8027 72.3267V71.9116L61.0103 71.4966L61.3008 71.2476L61.6743 71.123Z" fill="#FEFEFE"/>
<path id="Vector_74" d="M76.6167 42.9004H76.9487L77.2808 43.0664L77.5713 43.3984L77.6958 43.689V44.187L77.5298 44.519L77.2393 44.7681L77.0317 44.8511H76.4922L76.2017 44.6851L75.9941 44.4775L75.8696 44.27L75.8281 44.104V43.689L75.9941 43.2739L76.2847 43.0249L76.6167 42.9004Z" fill="#FEFEFE"/>
<path id="Vector_75" d="M12.3682 59.626H12.9077L13.2397 59.792L13.4888 60.124L13.6133 60.4561V60.7881L13.4473 61.1616L13.2812 61.3691L12.9492 61.5352H12.5342L12.1191 61.3691L11.7871 60.9956L11.7041 60.7881V60.2485L11.9116 59.9165L12.2437 59.6675L12.3682 59.626Z" fill="#FEFEFE"/>
<path id="Vector_76" d="M44.5752 77.0156H45.1978L45.4468 77.1401L45.6543 77.3477L45.8203 77.5967L45.8618 77.7212V78.1362L45.6543 78.5098L45.2808 78.8003L44.9487 78.8833L44.4922 78.8418L44.1187 78.5928L43.9526 78.3022L43.9111 78.1362V77.7212L44.1187 77.3062L44.4507 77.0571L44.5752 77.0156Z" fill="#FEFEFE"/>
<path id="Vector_77" d="M21.5405 15.3418H21.9556L22.2876 15.4663L22.4951 15.6323L22.6611 15.9229V16.4624L22.5366 16.7944L22.3291 17.0435L21.9141 17.251H21.416L21.084 17.0435L20.8765 16.7944L20.752 16.4624V16.1719L20.8765 15.8398L21.167 15.5078L21.5405 15.3418Z" fill="#FEFEFE"/>
<path id="Vector_78" d="M60.2227 13.4736H60.7622L61.0942 13.6396L61.4263 14.0132L61.5093 14.3037V14.5942L61.3433 14.9678L61.1357 15.1753L60.8037 15.3413H60.3472L60.0151 15.2168L59.6831 14.9263L59.5586 14.6772V14.1792L59.7661 13.7642L60.0151 13.5566L60.2227 13.4736Z" fill="#FEFEFE"/>
<path id="Vector_79" d="M70.5566 23.2686H71.0962L71.4282 23.4346L71.6772 23.7251L71.8018 24.0156V24.4722L71.6357 24.8457L71.3452 25.0947L71.1377 25.1777H70.7642L70.3906 25.0532L70.1001 24.8042L69.8926 24.3892V23.9326L70.1001 23.6006L70.3906 23.3516L70.5566 23.2686Z" fill="#FEFEFE"/>
<path id="Vector_80" d="M52.3784 75.2314L52.7104 75.2729L52.9595 75.439L53.2085 75.7295L53.3745 76.1445V76.7256L53.167 77.1406L52.8765 77.3896L52.5859 77.5142L52.3784 77.5557H52.0049L51.6729 77.4312L51.4653 77.2236L51.4238 77.0991V76.6841L51.9634 76.3936L52.2539 76.103L52.3784 75.854V75.2314Z" fill="#FEFEFE"/>
<path id="Vector_81" d="M18.6768 65.8516L18.8428 65.9346L19.2163 66.2666V66.5571L19.3823 66.7231H19.9219L20.3369 66.6401H20.7935L21.1255 66.8062L21.3745 67.0967L21.333 67.2627L21.001 67.5947L20.835 67.5117L20.6689 67.3872L20.5444 67.3457L19.5068 67.3872L19.0503 67.2212L18.6353 66.8477L18.5107 66.5986V66.1006L18.6768 65.8516Z" fill="#F46927"/>
<path id="Vector_82" d="M24.4868 11.1914L24.6113 11.2329L24.8604 11.6895V11.7725L24.5283 11.9385L24.4038 12.1875L24.2378 12.9346L23.9888 13.3081L23.6567 13.5986L23.3662 13.7231H22.9097L22.6606 13.5986L22.4531 13.3496L22.5776 13.2251L23.0342 12.9761L23.2002 13.0591L23.4492 13.0176L23.5737 12.8931L23.6567 12.6025L23.7397 11.897L23.9058 11.5649L24.2378 11.2744L24.4868 11.1914Z" fill="#F46927"/>
<path id="Vector_83" d="M39.0137 77.7217L39.3872 77.8047L39.5947 78.0537L39.6362 78.1367V78.5103L39.5117 78.7178L39.3872 78.8423H38.8892L38.5986 78.5933L38.5156 78.3857L38.5571 78.0537L38.7646 77.8047L39.0137 77.7217Z" fill="#FEFEFE"/>
<path id="Vector_84" d="M6.55811 48.3789H6.89014L6.93164 48.4204L7.01465 49.0845L6.30908 49.209L6.18457 49.1675L6.10156 48.7109V48.4619L6.55811 48.3789Z" fill="#F46927"/>
<path id="Vector_85" d="M37.9761 9.69727H38.2666L38.4326 9.86328L38.4741 9.94629V10.2783L38.2666 10.4858L38.1836 10.5273H37.9346L37.7271 10.3198L37.6855 9.94629L37.8516 9.73877L37.9761 9.69727Z" fill="#FEFEFE"/>
<path id="Vector_86" d="M32.207 10.9834L32.4976 11.0249L32.6221 11.1909L32.6636 11.5645L32.4976 11.772L32.4146 11.8135H32.0825L31.9165 11.6475L31.875 11.5229V11.1909L32.0825 11.0249L32.207 10.9834Z" fill="#FEFEFE"/>
<path id="Vector_87" d="M64.3726 17.582H64.6631L64.9121 17.7896L64.9536 18.0386L64.7876 18.2876L64.7046 18.3706H64.3311L64.1235 18.2046L64.082 17.9556L64.248 17.665L64.3726 17.582Z" fill="#FEFEFE"/>
<path id="Vector_88" d="M48.2695 9.94531L48.5186 9.98682L48.7261 10.1943L48.7676 10.4434L48.6431 10.6509L48.4355 10.7754L48.145 10.7339L47.979 10.6094L47.9375 10.4019L48.062 10.0698L48.2695 9.94531Z" fill="#FEFEFE"/>
<path id="Vector_89" d="M64.7461 70.168L65.0366 70.2095L65.2441 70.4585L65.2026 70.7905L64.9536 70.998L64.6631 70.9565L64.4556 70.7075L64.4141 70.5L64.5386 70.2925L64.7461 70.168Z" fill="#FEFEFE"/>
<path id="Vector_90" d="M73.7524 30.6152H74.0845L74.2505 30.7812L74.292 31.0718L74.1675 31.2793L73.96 31.4038L73.6694 31.3623L73.5034 31.1548L73.4619 30.8643L73.6694 30.6567L73.7524 30.6152Z" fill="#FEFEFE"/>
<path id="Vector_91" d="M24.4048 14.5938H24.7368L24.9443 14.7598L24.9858 14.8428V15.1333L24.7783 15.3408L24.6953 15.3823H24.4463L24.2388 15.1748L24.1973 15.0918V14.8013L24.4048 14.5938Z" fill="#FEFEFE"/>
<path id="Vector_92" d="M57.6074 74.7334L57.8564 74.7749L58.064 74.9824L58.1055 75.1899L57.981 75.439L57.7734 75.5635L57.4829 75.522L57.3169 75.2729L57.2754 75.0239L57.4829 74.7749L57.6074 74.7334Z" fill="#FEFEFE"/>
<path id="Vector_93" d="M72.7559 60.5801L73.0049 60.6216L73.1709 60.7876L73.2124 60.8706V61.1196L73.0464 61.3687L72.8389 61.4102L72.5068 61.2441L72.4238 61.1196V60.8706L72.5483 60.6631L72.7559 60.5801Z" fill="#FEFEFE"/>
<path id="Vector_94" d="M61.7578 71.7451L61.9653 71.8281L62.0898 71.9941V72.2432L61.9238 72.4092L61.7163 72.4507L61.5088 72.3262L61.4258 72.0356L61.5503 71.8281L61.7578 71.7451Z" fill="#F46927"/>
<path id="Vector_95" d="M24.8198 73.0312L25.0688 73.1143L25.1519 73.1973V73.5293L25.0273 73.6538L24.8198 73.6953L24.6123 73.5708L24.5293 73.4463L24.5708 73.1973L24.6953 73.0728L24.8198 73.0312Z" fill="#FEFEFE"/>
<path id="Vector_96" d="M62.7544 15.7979H63.0034L63.1694 16.0054L63.1279 16.2959L62.9619 16.4204L62.6714 16.3789L62.5469 16.2129V15.9639L62.7544 15.7979Z" fill="#FEFEFE"/>
<path id="Vector_97" d="M8.59131 33.6855L8.88184 33.7271L9.00635 33.8516V34.1421L8.88184 34.2666H8.59131L8.38379 34.1006V33.8516L8.5083 33.7271L8.59131 33.6855Z" fill="#FEFEFE"/>
<path id="Vector_98" d="M68.4395 19.6582L68.647 19.6997L68.7715 19.8657L68.73 20.1147L68.5225 20.2808H68.2734L68.1074 20.0732L68.1904 19.8242L68.4395 19.6582Z" fill="#FEFEFE"/>
<path id="Vector_99" d="M51.3818 75.3145H51.5894L51.7554 75.522V75.8125L51.5894 75.937H51.3403L51.2158 75.771V75.4805L51.3818 75.3145Z" fill="#FEFEFE"/>
<path id="Vector_100" d="M41.4624 77.8457H41.7529L41.8774 77.9287V78.2607L41.7114 78.4268L41.4209 78.3853L41.3379 78.3022V77.9702L41.4624 77.8457Z" fill="#FEFEFE"/>
<path id="Vector_101" d="M27.9321 12.3535L28.1396 12.395L28.2227 12.5195V12.8101L28.0981 12.9346L27.8491 12.9761L27.6831 12.8101L27.6416 12.561L27.8491 12.395L27.9321 12.3535Z" fill="#FEFEFE"/>
<path id="Vector_102" d="M52.2534 10.6094H52.5024L52.6685 10.6924L52.71 10.8999L52.5854 11.1489H52.2534L52.1289 11.0659V10.7339L52.2534 10.6094Z" fill="#FEFEFE"/>
<path id="Vector_103" d="M14.0703 27.2529H14.3193L14.4854 27.4189L14.4438 27.6265L14.3193 27.751H14.0703L13.9043 27.585L13.9458 27.3774L14.0703 27.2529Z" fill="#FEFEFE"/>
<path id="Vector_104" d="M29.0938 74.8164L29.3843 74.8579L29.4258 74.9409V75.2314L29.3428 75.3145H29.0938L28.9277 75.1899V74.9409L29.0938 74.8164Z" fill="#FEFEFE"/>
<path id="Vector_105" d="M27.019 74.1113H27.2681L27.4341 74.2358V74.4849L27.3096 74.6094L27.0605 74.5679L26.8945 74.3604L26.9775 74.1528L27.019 74.1113Z" fill="#FEFEFE"/>
<path id="Vector_106" d="M16.269 17.9561L16.5596 17.9976L16.6426 18.1221L16.6011 18.3296L16.5181 18.4126L16.269 18.3711L16.1445 18.2051L16.2275 17.9976L16.269 17.9561Z" fill="#FEFEFE"/>
</g>
<defs>
<clipPath id="clip0_1594_3193">
<rect width="85" height="85" fill="white" transform="translate(0 0.69043)"/>
</clipPath>
</defs>
</svg>
