<svg width="15" height="15" viewBox="0 0 15 15" fill="none" xmlns="http://www.w3.org/2000/svg">
<g id="Frame 1000003261">
<g id="Group">
<path id="Vector" d="M7.39941 1.31641H4.73275C2.8918 1.31641 1.39941 2.80879 1.39941 4.64974V9.98307C1.39941 11.824 2.8918 13.3164 4.73275 13.3164H10.0661C11.907 13.3164 13.3994 11.824 13.3994 9.98307V4.64974C13.3994 2.80879 11.907 1.31641 10.0661 1.31641H7.39941Z" stroke="#DB4242" stroke-width="2" stroke-linecap="round" stroke-linejoin="round"/>
<path id="Vector_2" d="M7.39909 4.6499C8.87185 4.6499 10.0658 5.84381 10.0658 7.31657C10.0658 8.78933 8.87185 9.98324 7.39909 9.98324C5.92633 9.98324 4.73242 8.7893 4.73242 7.31657C4.73242 5.84381 5.92633 4.6499 7.39909 4.6499Z" stroke="#DB4242" stroke-width="2" stroke-linecap="round" stroke-linejoin="round"/>
</g>
<path id="Vector_3" d="M10.7324 4.98242C11.2847 4.98242 11.7324 4.53471 11.7324 3.98242C11.7324 3.43014 11.2847 2.98242 10.7324 2.98242C10.1801 2.98242 9.73242 3.43014 9.73242 3.98242C9.73242 4.53471 10.1801 4.98242 10.7324 4.98242Z" fill="#DB4242"/>
</g>
</svg>
