<svg width="16" height="17" viewBox="0 0 16 17" fill="none" xmlns="http://www.w3.org/2000/svg">
<g id="bi:youtube">
<path id="Vector" d="M8.051 2.31543H8.14C8.962 2.31843 13.127 2.34843 14.25 2.65043C14.5895 2.7426 14.8989 2.92225 15.1472 3.17144C15.3955 3.42062 15.574 3.73061 15.665 4.07043C15.766 4.45043 15.837 4.95343 15.885 5.47243L15.895 5.57643L15.917 5.83643L15.925 5.94043C15.99 6.85443 15.998 7.71043 15.999 7.89743V7.97243C15.998 8.16643 15.989 9.08043 15.917 10.0324L15.909 10.1374L15.9 10.2414C15.85 10.8134 15.776 11.3814 15.665 11.7994C15.574 12.1392 15.3955 12.4492 15.1472 12.6984C14.8989 12.9476 14.5895 13.1273 14.25 13.2194C13.09 13.5314 8.681 13.5534 8.07 13.5544H7.928C7.619 13.5544 6.341 13.5484 5.001 13.5024L4.831 13.4964L4.744 13.4924L4.573 13.4854L4.402 13.4784C3.292 13.4294 2.235 13.3504 1.748 13.2184C1.40863 13.1264 1.09935 12.9468 0.851051 12.6978C0.602753 12.4488 0.424123 12.1391 0.333 11.7994C0.222 11.3824 0.148 10.8134 0.098 10.2414L0.09 10.1364L0.082 10.0324C0.0323634 9.35485 0.00501532 8.67581 0 7.99643L0 7.87343C0.002 7.65843 0.01 6.91543 0.064 6.09543L0.071 5.99243L0.074 5.94043L0.082 5.83643L0.104 5.57643L0.114 5.47243C0.162 4.95343 0.233 4.44943 0.334 4.07043C0.42497 3.73061 0.603532 3.42062 0.85184 3.17144C1.10015 2.92225 1.40951 2.7426 1.749 2.65043C2.236 2.52043 3.293 2.44043 4.403 2.39043L4.573 2.38343L4.745 2.37743L4.831 2.37443L5.002 2.36743C5.95371 2.33683 6.90581 2.31983 7.858 2.31643L8.051 2.31543ZM6.4 5.52543V10.3434L10.557 7.93543L6.4 5.52543Z" fill="#DB4242"/>
</g>
</svg>
