<svg width="14" height="15" viewBox="0 0 14 15" fill="none" xmlns="http://www.w3.org/2000/svg">
<path id="Vector" d="M9.87109 2.61133L9.26953 2.00977C9.21484 1.95508 9.1875 1.89128 9.1875 1.81836C9.1875 1.74544 9.21484 1.68164 9.26953 1.62695L9.87109 1.02539C9.9987 0.897786 10.1263 0.897786 10.2539 1.02539L10.8555 1.62695C10.9102 1.68164 10.9375 1.74544 10.9375 1.81836C10.9375 1.89128 10.9102 1.95508 10.8555 2.00977L10.2539 2.61133C10.1992 2.66602 10.1354 2.69336 10.0625 2.69336C9.98958 2.69336 9.92578 2.66602 9.87109 2.61133ZM9.32422 6.98633C9.87109 6.45768 10.5182 6.19336 11.2656 6.19336C12.013 6.19336 12.6556 6.46224 13.1934 7C13.7311 7.53776 14 8.18034 14 8.92773V11.6621C14 12.3184 13.7311 12.8835 13.1934 13.3574C12.6556 13.8314 12.0495 14.0684 11.375 14.0684C10.8828 14.0684 10.459 14.0091 10.1035 13.8906C9.74805 13.7721 9.48372 13.6263 9.31055 13.4531C9.13737 13.2799 9.00521 13.1068 8.91406 12.9336C8.82292 12.7604 8.77734 12.6191 8.77734 12.5098L8.75 12.3184V11.2793C8.75 11.1699 8.80013 11.1016 8.90039 11.0742C9.00065 11.0469 9.07812 11.0697 9.13281 11.1426C9.77083 11.9264 10.5182 12.3184 11.375 12.3184C11.5755 12.3184 11.7715 12.25 11.9629 12.1133C12.1543 11.9766 12.25 11.8262 12.25 11.6621V8.92773C12.25 8.6543 12.1543 8.42188 11.9629 8.23047C11.7715 8.03906 11.5391 7.94336 11.2656 7.94336C10.9922 7.94336 10.7643 8.03451 10.582 8.2168L9.89844 8.90039C9.36979 9.42904 8.73177 9.69336 7.98438 9.69336H7.38281C7.71094 10.2585 7.875 10.8418 7.875 11.4434C7.875 12.4095 7.5332 13.2344 6.84961 13.918C6.16602 14.6016 5.34115 14.9434 4.375 14.9434C3.60938 14.9434 2.93034 14.8021 2.33789 14.5195C1.74544 14.237 1.28516 13.877 0.957031 13.4395C0.628906 13.002 0.38737 12.5599 0.232422 12.1133C0.077474 11.6667 0 11.2337 0 10.8145C0 10.7051 0.0501302 10.6276 0.150391 10.582C0.250651 10.5365 0.33724 10.5684 0.410156 10.6777C0.428385 10.7142 0.464844 10.7689 0.519531 10.8418C0.720052 11.2064 0.893229 11.4844 1.03906 11.6758C1.1849 11.8672 1.4082 12.1042 1.70898 12.3867C2.00977 12.6693 2.38346 12.8743 2.83008 13.002C3.27669 13.1296 3.79167 13.1934 4.375 13.1934C4.84896 13.1934 5.25911 13.0202 5.60547 12.6738C5.95182 12.3275 6.125 11.9173 6.125 11.4434C6.125 10.9694 5.95182 10.5592 5.60547 10.2129C5.25911 9.86654 4.84896 9.69336 4.375 9.69336H3.47266C3.30859 9.67513 3.1901 9.5931 3.11719 9.44727L2.67969 8.57227C2.60677 8.42643 2.61133 8.28516 2.69336 8.14844C2.77539 8.01172 2.89844 7.94336 3.0625 7.94336H3.9375C4.30208 7.94336 4.61198 7.81576 4.86719 7.56055C5.1224 7.30534 5.25 6.99544 5.25 6.63086C5.25 6.26628 5.1224 5.95638 4.86719 5.70117C4.61198 5.44596 4.30208 5.31836 3.9375 5.31836C3.6276 5.31836 3.35417 5.41862 3.11719 5.61914C2.9349 5.74675 2.7526 5.74675 2.57031 5.61914L1.85938 5.07227C1.75 4.99935 1.69531 4.89453 1.69531 4.75781C1.69531 4.62109 1.74089 4.49805 1.83203 4.38867C2.5612 3.69596 3.4362 3.44075 4.45703 3.62305C4.85807 3.67773 5.22721 3.8099 5.56445 4.01953C5.90169 4.22917 6.1888 4.49805 6.42578 4.82617C6.66276 5.1543 6.82682 5.50977 6.91797 5.89258C7.08203 6.60352 7.00911 7.28711 6.69922 7.94336H7.98438C8.25781 7.94336 8.48568 7.85221 8.66797 7.66992L9.32422 6.98633ZM12.4141 2.77539C12.5599 2.66602 12.7148 2.65234 12.8789 2.73438C13.043 2.81641 13.125 2.94857 13.125 3.13086V4.11523C13.125 4.16992 13.1113 4.22461 13.084 4.2793C13.0566 4.33398 13.0202 4.39323 12.9746 4.45703C12.929 4.52083 12.8379 4.60742 12.7012 4.7168C12.5645 4.82617 12.4004 4.92188 12.209 5.00391C12.0176 5.08594 11.7533 5.15885 11.416 5.22266C11.0788 5.28646 10.7096 5.31836 10.3086 5.31836C10.0169 5.31836 9.72982 5.2819 9.44727 5.20898C9.16471 5.13607 8.92318 5.04492 8.72266 4.93555C8.52214 4.82617 8.32617 4.69857 8.13477 4.55273C7.94336 4.4069 7.78841 4.27474 7.66992 4.15625C7.55143 4.03776 7.44206 3.91016 7.3418 3.77344C7.24154 3.63672 7.17318 3.54102 7.13672 3.48633C7.10026 3.43164 7.07292 3.38607 7.05469 3.34961C6.94531 3.13086 6.97721 2.94401 7.15039 2.78906C7.32357 2.63411 7.51042 2.62956 7.71094 2.77539C7.78385 2.84831 7.88411 2.92122 8.01172 2.99414C8.13932 3.06706 8.3763 3.17188 8.72266 3.30859C9.06901 3.44531 9.41992 3.53646 9.77539 3.58203C10.1309 3.6276 10.5501 3.59115 11.0332 3.47266C11.5163 3.35417 11.9766 3.12175 12.4141 2.77539Z" fill="#DB4242"/>
</svg>
