<svg width="17" height="17" viewBox="0 0 17 17" fill="none" xmlns="http://www.w3.org/2000/svg">
<g id="ic:baseline-whatsapp">
<path id="Vector" d="M13.3988 3.58994C12.7876 2.97256 12.0596 2.48305 11.2572 2.14998C10.4548 1.8169 9.59417 1.64692 8.72543 1.64994C5.08543 1.64994 2.11876 4.61661 2.11876 8.25661C2.11876 9.42327 2.42543 10.5566 2.99876 11.5566L2.06543 14.9833L5.56543 14.0633C6.5321 14.5899 7.61876 14.8699 8.72543 14.8699C12.3654 14.8699 15.3321 11.9033 15.3321 8.26328C15.3321 6.49661 14.6454 4.83661 13.3988 3.58994ZM8.72543 13.7499C7.73876 13.7499 6.7721 13.4833 5.92543 12.9833L5.72543 12.8633L3.64543 13.4099L4.19876 11.3833L4.06543 11.1766C3.51726 10.3013 3.22619 9.28944 3.22543 8.25661C3.22543 5.22994 5.6921 2.76328 8.71876 2.76328C10.1854 2.76328 11.5654 3.33661 12.5988 4.37661C13.1104 4.88592 13.5159 5.49172 13.7917 6.15889C14.0675 6.82607 14.2081 7.54135 14.2054 8.26328C14.2188 11.2899 11.7521 13.7499 8.72543 13.7499ZM11.7388 9.64328C11.5721 9.56328 10.7588 9.16328 10.6121 9.10328C10.4588 9.04994 10.3521 9.02328 10.2388 9.18328C10.1254 9.34994 9.8121 9.72328 9.71876 9.82994C9.62543 9.94328 9.52543 9.95661 9.35876 9.86994C9.1921 9.78994 8.65876 9.60994 8.0321 9.04994C7.53876 8.60994 7.2121 8.06994 7.1121 7.90328C7.01876 7.73661 7.09876 7.64994 7.18543 7.56328C7.25876 7.48994 7.3521 7.36994 7.4321 7.27661C7.5121 7.18327 7.54543 7.10994 7.59876 7.00327C7.6521 6.88994 7.62543 6.79661 7.58543 6.71661C7.54543 6.63661 7.2121 5.82328 7.07876 5.48994C6.94543 5.16994 6.80543 5.20994 6.70543 5.20328H6.38543C6.2721 5.20328 6.09876 5.24328 5.94543 5.40994C5.79876 5.57661 5.3721 5.97661 5.3721 6.78994C5.3721 7.60328 5.96543 8.38994 6.04543 8.49661C6.12543 8.60994 7.2121 10.2766 8.86543 10.9899C9.25876 11.1633 9.56543 11.2633 9.80543 11.3366C10.1988 11.4633 10.5588 11.4433 10.8454 11.4033C11.1654 11.3566 11.8254 11.0033 11.9588 10.6166C12.0988 10.2299 12.0988 9.90328 12.0521 9.82994C12.0054 9.75661 11.9054 9.72328 11.7388 9.64328Z" fill="#DB4242"/>
</g>
</svg>
