<svg width="14" height="15" viewBox="0 0 14 15" fill="none" xmlns="http://www.w3.org/2000/svg">
<g id="Icon">
<path id="Vector" d="M12.6875 2.3667C13.0521 2.3667 13.362 2.4943 13.6172 2.74951C13.8724 3.00472 14 3.31462 14 3.6792V11.5542C14 11.9188 13.8724 12.2287 13.6172 12.4839C13.362 12.7391 13.0521 12.8667 12.6875 12.8667H1.3125C0.947917 12.8667 0.638021 12.7391 0.382812 12.4839C0.127604 12.2287 0 11.9188 0 11.5542V3.6792C0 3.31462 0.127604 3.00472 0.382812 2.74951C0.638021 2.4943 0.947917 2.3667 1.3125 2.3667H12.6875ZM12.6875 3.6792H1.3125V4.80029C1.95052 5.31071 3.18099 6.27686 5.00391 7.69873C5.00391 7.71696 5.13151 7.83089 5.38672 8.04053C5.64193 8.25016 5.83333 8.396 5.96094 8.47803C6.08854 8.56006 6.25716 8.65576 6.4668 8.76514C6.67643 8.87451 6.85417 8.9292 7 8.9292C7.14583 8.9292 7.32357 8.87451 7.5332 8.76514C7.74284 8.65576 7.91146 8.56006 8.03906 8.47803C8.16667 8.396 8.35807 8.25016 8.61328 8.04053C8.86849 7.83089 8.99609 7.71696 8.99609 7.69873C10.819 6.27686 12.0495 5.31071 12.6875 4.80029V3.6792ZM1.3125 11.5542H12.6875V6.46826C12.0495 6.97868 11.0924 7.73519 9.81641 8.73779C9.77995 8.75602 9.64779 8.8654 9.41992 9.06592C9.19206 9.26644 9.01432 9.41227 8.88672 9.50342C8.75911 9.59456 8.57682 9.7085 8.33984 9.84521C8.10286 9.98193 7.875 10.0822 7.65625 10.146C7.4375 10.2098 7.21875 10.2417 7 10.2417C6.78125 10.2417 6.55794 10.2098 6.33008 10.146C6.10221 10.0822 5.87435 9.97738 5.64648 9.83154C5.41862 9.68571 5.24089 9.56722 5.11328 9.47607C4.98568 9.38493 4.80794 9.24365 4.58008 9.05225C4.35221 8.86084 4.22005 8.75602 4.18359 8.73779C2.90755 7.73519 1.95052 6.97868 1.3125 6.46826V11.5542Z" fill="white"/>
</g>
</svg>
