<svg width="12" height="14" viewBox="0 0 12 14" fill="none" xmlns="http://www.w3.org/2000/svg">
<g id="Icon" clip-path="url(#clip0_269_1350)">
<path id="Vector" d="M3.76074 8.24902H2.74512C2.54199 8.24902 2.44043 8.14746 2.44043 7.94434V6.92871C2.44043 6.72559 2.54199 6.62402 2.74512 6.62402H3.76074C3.96387 6.62402 4.06543 6.72559 4.06543 6.92871V7.94434C4.06543 8.14746 3.96387 8.24902 3.76074 8.24902ZM6.50293 7.94434C6.50293 8.14746 6.40137 8.24902 6.19824 8.24902H5.18262C4.97949 8.24902 4.87793 8.14746 4.87793 7.94434V6.92871C4.87793 6.72559 4.97949 6.62402 5.18262 6.62402H6.19824C6.40137 6.62402 6.50293 6.72559 6.50293 6.92871V7.94434ZM8.94043 7.94434C8.94043 8.14746 8.83887 8.24902 8.63574 8.24902H7.62012C7.41699 8.24902 7.31543 8.14746 7.31543 7.94434V6.92871C7.31543 6.72559 7.41699 6.62402 7.62012 6.62402H8.63574C8.83887 6.62402 8.94043 6.72559 8.94043 6.92871V7.94434ZM6.50293 10.3818C6.50293 10.585 6.40137 10.6865 6.19824 10.6865H5.18262C4.97949 10.6865 4.87793 10.585 4.87793 10.3818V9.36621C4.87793 9.16309 4.97949 9.06152 5.18262 9.06152H6.19824C6.40137 9.06152 6.50293 9.16309 6.50293 9.36621V10.3818ZM4.06543 10.3818C4.06543 10.585 3.96387 10.6865 3.76074 10.6865H2.74512C2.54199 10.6865 2.44043 10.585 2.44043 10.3818V9.36621C2.44043 9.16309 2.54199 9.06152 2.74512 9.06152H3.76074C3.96387 9.06152 4.06543 9.16309 4.06543 9.36621V10.3818ZM8.94043 10.3818C8.94043 10.585 8.83887 10.6865 8.63574 10.6865H7.62012C7.41699 10.6865 7.31543 10.585 7.31543 10.3818V9.36621C7.31543 9.16309 7.41699 9.06152 7.62012 9.06152H8.63574C8.83887 9.06152 8.94043 9.16309 8.94043 9.36621V10.3818ZM11.3779 3.78027V12.7178C11.3779 13.0563 11.2594 13.3441 11.0225 13.5811C10.7855 13.818 10.4977 13.9365 10.1592 13.9365H1.22168C0.883138 13.9365 0.595378 13.818 0.358398 13.5811C0.121419 13.3441 0.00292969 13.0563 0.00292969 12.7178V3.78027C0.00292969 3.44173 0.121419 3.15397 0.358398 2.91699C0.595378 2.68001 0.883138 2.56152 1.22168 2.56152H2.44043V1.24121C2.44043 1.03809 2.54199 0.936523 2.74512 0.936523H3.76074C3.96387 0.936523 4.06543 1.03809 4.06543 1.24121V2.56152H7.31543V1.24121C7.31543 1.03809 7.41699 0.936523 7.62012 0.936523H8.63574C8.83887 0.936523 8.94043 1.03809 8.94043 1.24121V2.56152H10.1592C10.4977 2.56152 10.7855 2.68001 11.0225 2.91699C11.2594 3.15397 11.3779 3.44173 11.3779 3.78027ZM10.1592 12.5654V4.99902H1.22168V12.5654C1.22168 12.667 1.27246 12.7178 1.37402 12.7178H10.0068C10.1084 12.7178 10.1592 12.667 10.1592 12.5654Z" fill="#DB4242"/>
</g>
<defs>
<clipPath id="clip0_269_1350">
<rect width="11.38" height="13" fill="white" transform="matrix(1 0 0 -1 0 13.9365)"/>
</clipPath>
</defs>
</svg>
