<svg width="11" height="15" viewBox="0 0 11 15" fill="none" xmlns="http://www.w3.org/2000/svg">
<g id="Icon" clip-path="url(#clip0_269_1290)">
<path id="Vector" d="M1.53125 1.84766C1.53125 1.84766 1.78646 1.59245 2.29688 1.08203C2.80729 0.571614 3.79167 0.316406 5.25 0.316406C6.70833 0.316406 7.94792 0.826823 8.96875 1.84766C9.98958 2.86849 10.5 4.10807 10.5 5.56641C10.5 5.85807 10.4909 6.10872 10.4727 6.31836C10.4544 6.52799 10.3906 6.77865 10.2812 7.07031C10.1719 7.36198 10.0716 7.60807 9.98047 7.80859C9.88932 8.00911 9.70703 8.33724 9.43359 8.79297C9.16016 9.2487 8.91862 9.64062 8.70898 9.96875C8.49935 10.2969 8.153 10.8438 7.66992 11.6094C7.18685 12.375 6.75391 13.0677 6.37109 13.6875C6.11589 14.1068 5.74219 14.3164 5.25 14.3164C4.75781 14.3164 4.38411 14.1068 4.12891 13.6875C3.74609 13.0677 3.31315 12.375 2.83008 11.6094C2.34701 10.8438 2.00065 10.2969 1.79102 9.96875C1.58138 9.64062 1.33984 9.2487 1.06641 8.79297C0.792969 8.33724 0.610677 8.00911 0.519531 7.80859C0.428385 7.60807 0.328125 7.36198 0.21875 7.07031C0.109375 6.77865 0.0455729 6.52799 0.0273438 6.31836C0.00911458 6.10872 0 5.85807 0 5.56641C0 4.10807 0.510417 2.86849 1.53125 1.84766ZM5.25 13.0039C5.61458 12.4206 6.00651 11.8008 6.42578 11.1445C6.84505 10.4883 7.15951 9.99154 7.36914 9.6543C7.57878 9.31706 7.80208 8.95703 8.03906 8.57422C8.27604 8.19141 8.44466 7.9043 8.54492 7.71289C8.64518 7.52148 8.75 7.31641 8.85938 7.09766C8.96875 6.87891 9.04167 6.69661 9.07812 6.55078C9.11458 6.40495 9.14193 6.25456 9.16016 6.09961C9.17839 5.94466 9.1875 5.76693 9.1875 5.56641C9.1875 4.47266 8.80469 3.54297 8.03906 2.77734C7.27344 2.01172 6.34375 1.62891 5.25 1.62891C4.15625 1.62891 3.22656 2.01172 2.46094 2.77734C1.69531 3.54297 1.3125 4.47266 1.3125 5.56641C1.3125 5.76693 1.32161 5.94466 1.33984 6.09961C1.35807 6.25456 1.38542 6.40951 1.42188 6.56445C1.45833 6.7194 1.53125 6.90625 1.64062 7.125C1.75 7.34375 1.85938 7.54883 1.96875 7.74023C2.07812 7.93164 2.2513 8.21875 2.48828 8.60156C2.72526 8.98438 2.94857 9.3444 3.1582 9.68164C3.36784 10.0189 3.67773 10.5111 4.08789 11.1582C4.49805 11.8053 4.88542 12.4206 5.25 13.0039Z" fill="white"/>
</g>
<defs>
<clipPath id="clip0_269_1290">
<rect width="10.5" height="14" fill="white" transform="matrix(1 0 0 -1 0 14.3164)"/>
</clipPath>
</defs>
</svg>
