<svg width="14" height="15" viewBox="0 0 14 15" fill="none" xmlns="http://www.w3.org/2000/svg">
<g id="Icon" clip-path="url(#clip0_269_1280)">
<path id="Vector" d="M13.0156 1.54541C13.3072 1.6001 13.5442 1.74137 13.7265 1.96924C13.9088 2.1971 14 2.46598 14 2.77588C14 4.4165 13.6764 5.98877 13.0293 7.49268C12.3821 8.99658 11.5162 10.2909 10.4316 11.3755C9.34696 12.4601 8.05725 13.3215 6.56246 13.9595C5.06767 14.5975 3.49084 14.9165 1.83199 14.9165C1.54032 14.9165 1.28056 14.8254 1.05269 14.6431C0.824827 14.4608 0.683551 14.2238 0.628864 13.9321L0.0273013 11.3618C-0.0456154 11.0701 -0.0137143 10.7876 0.123004 10.5142C0.259723 10.2407 0.473916 10.0493 0.765583 9.93994L3.5273 8.73682C3.78251 8.62744 4.04683 8.60921 4.32027 8.68213C4.59371 8.75505 4.82157 8.90088 5.00386 9.11963L5.87886 10.2134C7.35543 9.4113 8.49475 8.27197 9.29683 6.79541L8.20308 5.92041C7.98433 5.73812 7.84306 5.51025 7.77925 5.23682C7.71545 4.96338 7.72912 4.69906 7.82027 4.44385L9.02339 1.68213C9.151 1.39046 9.34696 1.17627 9.61129 1.03955C9.87561 0.902832 10.1536 0.870931 10.4453 0.943848L13.0156 1.54541ZM1.88668 13.604C3.8372 13.604 5.64188 13.1209 7.30074 12.1548C8.95959 11.1886 10.2721 9.87614 11.2382 8.21729C12.2044 6.55843 12.6875 4.75374 12.6875 2.80322L10.1992 2.229L9.05074 4.93604L10.9101 6.43994C10.2903 7.7889 9.57483 8.86442 8.76363 9.6665C7.95243 10.4686 6.87235 11.1886 5.5234 11.8267L4.01949 9.96729L1.31246 11.1157L1.88668 13.604Z" fill="white"/>
</g>
<defs>
<clipPath id="clip0_269_1280">
<rect width="14" height="14" fill="white" transform="matrix(1 0 0 -1 0 14.9165)"/>
</clipPath>
</defs>
</svg>
